G04 EAGLE Gerber RS-274X export*
G75*
%MOMM*%
%FSLAX34Y34*%
%LPD*%
%INTop Copper*%
%IPPOS*%
%AMOC8*
5,1,8,0,0,1.08239X$1,22.5*%
G01*
%ADD10R,1.400000X0.800000*%
%ADD11R,2.400000X0.800000*%
%ADD12R,0.711000X1.500000*%
%ADD13R,0.914000X2.000000*%
%ADD14R,1.905000X3.334000*%
%ADD15R,2.235200X1.219200*%
%ADD16R,2.200000X3.600000*%
%ADD17R,1.080000X1.050000*%
%ADD18R,1.050000X1.080000*%
%ADD19R,1.800000X1.600000*%
%ADD20R,1.600000X2.200000*%
%ADD21R,2.200000X1.600000*%
%ADD22R,2.400000X2.000000*%
%ADD23R,4.100000X1.250000*%
%ADD24R,4.100000X0.900000*%
%ADD25R,1.600000X1.803000*%
%ADD26R,1.270000X1.470000*%
%ADD27R,0.800000X0.900000*%
%ADD28C,0.508000*%
%ADD29C,0.956400*%
%ADD30C,0.406400*%
%ADD31C,0.756400*%
%ADD32C,1.041400*%
%ADD33C,0.304800*%
%ADD34C,0.635000*%
%ADD35C,0.609600*%
%ADD36C,1.016000*%
%ADD37C,0.812800*%

G36*
X456532Y94616D02*
X456532Y94616D01*
X456603Y94621D01*
X456651Y94642D01*
X456702Y94653D01*
X456763Y94689D01*
X456829Y94718D01*
X456885Y94762D01*
X456913Y94779D01*
X456928Y94797D01*
X456960Y94822D01*
X457666Y95529D01*
X458109Y95712D01*
X458209Y95774D01*
X458309Y95834D01*
X458313Y95838D01*
X458318Y95842D01*
X458393Y95932D01*
X458469Y96020D01*
X458471Y96026D01*
X458475Y96031D01*
X458517Y96140D01*
X458561Y96249D01*
X458562Y96256D01*
X458563Y96261D01*
X458564Y96279D01*
X458579Y96415D01*
X458579Y97537D01*
X467358Y97537D01*
X467378Y97540D01*
X467397Y97538D01*
X467499Y97560D01*
X467601Y97577D01*
X467618Y97586D01*
X467638Y97590D01*
X467727Y97643D01*
X467818Y97692D01*
X467832Y97706D01*
X467849Y97716D01*
X467916Y97795D01*
X467987Y97870D01*
X467996Y97888D01*
X468009Y97903D01*
X468048Y97999D01*
X468091Y98093D01*
X468093Y98113D01*
X468101Y98131D01*
X468119Y98298D01*
X468119Y99061D01*
X468121Y99061D01*
X468121Y98298D01*
X468124Y98278D01*
X468122Y98259D01*
X468144Y98157D01*
X468161Y98055D01*
X468170Y98038D01*
X468174Y98018D01*
X468227Y97929D01*
X468276Y97838D01*
X468290Y97824D01*
X468300Y97807D01*
X468379Y97740D01*
X468454Y97669D01*
X468472Y97660D01*
X468487Y97647D01*
X468583Y97608D01*
X468677Y97565D01*
X468697Y97563D01*
X468715Y97555D01*
X468882Y97537D01*
X477661Y97537D01*
X477661Y96415D01*
X477679Y96301D01*
X477697Y96184D01*
X477699Y96179D01*
X477700Y96173D01*
X477755Y96069D01*
X477808Y95965D01*
X477813Y95961D01*
X477816Y95955D01*
X477901Y95874D01*
X477984Y95793D01*
X477990Y95789D01*
X477994Y95786D01*
X478011Y95778D01*
X478131Y95712D01*
X478491Y95563D01*
X478555Y95548D01*
X478616Y95523D01*
X478699Y95514D01*
X478731Y95507D01*
X478750Y95508D01*
X478782Y95505D01*
X488122Y95505D01*
X488142Y95508D01*
X488161Y95506D01*
X488263Y95528D01*
X488365Y95544D01*
X488382Y95554D01*
X488402Y95558D01*
X488491Y95611D01*
X488582Y95660D01*
X488596Y95674D01*
X488613Y95684D01*
X488680Y95763D01*
X488752Y95838D01*
X488760Y95856D01*
X488773Y95871D01*
X488812Y95967D01*
X488855Y96061D01*
X488857Y96081D01*
X488865Y96099D01*
X488883Y96266D01*
X488883Y109193D01*
X489811Y111434D01*
X491012Y112634D01*
X491065Y112708D01*
X491125Y112778D01*
X491137Y112808D01*
X491156Y112834D01*
X491183Y112921D01*
X491217Y113006D01*
X491221Y113047D01*
X491228Y113069D01*
X491227Y113101D01*
X491235Y113173D01*
X491235Y115272D01*
X491232Y115292D01*
X491234Y115311D01*
X491212Y115413D01*
X491196Y115515D01*
X491186Y115532D01*
X491182Y115552D01*
X491129Y115641D01*
X491080Y115732D01*
X491066Y115746D01*
X491056Y115763D01*
X490977Y115830D01*
X490902Y115902D01*
X490884Y115910D01*
X490869Y115923D01*
X490773Y115962D01*
X490679Y116005D01*
X490659Y116007D01*
X490641Y116015D01*
X490474Y116033D01*
X487167Y116033D01*
X484926Y116961D01*
X483211Y118676D01*
X482283Y120917D01*
X482283Y143343D01*
X483211Y145584D01*
X484926Y147299D01*
X487167Y148227D01*
X513593Y148227D01*
X515027Y147633D01*
X515091Y147618D01*
X515151Y147593D01*
X515234Y147584D01*
X515266Y147577D01*
X515286Y147578D01*
X515318Y147575D01*
X522577Y147575D01*
X522667Y147589D01*
X522758Y147597D01*
X522788Y147609D01*
X522820Y147614D01*
X522901Y147657D01*
X522985Y147693D01*
X523017Y147719D01*
X523037Y147730D01*
X523060Y147753D01*
X523116Y147798D01*
X523416Y148099D01*
X525657Y149027D01*
X553264Y149027D01*
X553329Y149037D01*
X553394Y149038D01*
X553474Y149061D01*
X553507Y149066D01*
X553524Y149076D01*
X553555Y149085D01*
X554096Y149309D01*
X558424Y149309D01*
X558965Y149085D01*
X559029Y149070D01*
X559089Y149045D01*
X559172Y149036D01*
X559204Y149029D01*
X559224Y149030D01*
X559256Y149027D01*
X566928Y149027D01*
X566948Y149030D01*
X566967Y149028D01*
X567069Y149050D01*
X567171Y149066D01*
X567188Y149076D01*
X567208Y149080D01*
X567297Y149133D01*
X567388Y149182D01*
X567402Y149196D01*
X567419Y149206D01*
X567486Y149285D01*
X567558Y149360D01*
X567566Y149378D01*
X567579Y149393D01*
X567618Y149489D01*
X567661Y149583D01*
X567663Y149603D01*
X567671Y149621D01*
X567689Y149788D01*
X567689Y156628D01*
X567686Y156648D01*
X567688Y156667D01*
X567666Y156769D01*
X567650Y156871D01*
X567640Y156888D01*
X567636Y156908D01*
X567583Y156997D01*
X567534Y157088D01*
X567520Y157102D01*
X567510Y157119D01*
X567431Y157186D01*
X567356Y157258D01*
X567338Y157266D01*
X567323Y157279D01*
X567227Y157318D01*
X567133Y157361D01*
X567113Y157363D01*
X567095Y157371D01*
X566928Y157389D01*
X548893Y157389D01*
X548893Y164657D01*
X566928Y164657D01*
X566948Y164660D01*
X566967Y164658D01*
X567069Y164680D01*
X567171Y164697D01*
X567188Y164706D01*
X567208Y164710D01*
X567297Y164763D01*
X567388Y164812D01*
X567402Y164826D01*
X567419Y164836D01*
X567486Y164915D01*
X567558Y164990D01*
X567566Y165008D01*
X567579Y165023D01*
X567618Y165119D01*
X567661Y165213D01*
X567663Y165233D01*
X567671Y165251D01*
X567689Y165418D01*
X567689Y166942D01*
X567686Y166962D01*
X567688Y166981D01*
X567666Y167083D01*
X567650Y167185D01*
X567640Y167202D01*
X567636Y167222D01*
X567583Y167311D01*
X567534Y167402D01*
X567520Y167416D01*
X567510Y167433D01*
X567431Y167500D01*
X567356Y167571D01*
X567338Y167580D01*
X567323Y167593D01*
X567227Y167632D01*
X567133Y167675D01*
X567113Y167677D01*
X567095Y167685D01*
X566928Y167703D01*
X548893Y167703D01*
X548893Y174971D01*
X566928Y174971D01*
X566948Y174974D01*
X566967Y174972D01*
X567069Y174994D01*
X567171Y175010D01*
X567188Y175020D01*
X567208Y175024D01*
X567297Y175077D01*
X567388Y175126D01*
X567402Y175140D01*
X567419Y175150D01*
X567486Y175229D01*
X567558Y175304D01*
X567566Y175322D01*
X567579Y175337D01*
X567618Y175433D01*
X567661Y175527D01*
X567663Y175547D01*
X567671Y175565D01*
X567689Y175732D01*
X567689Y222758D01*
X567686Y222778D01*
X567688Y222797D01*
X567666Y222899D01*
X567650Y223001D01*
X567640Y223018D01*
X567636Y223038D01*
X567583Y223127D01*
X567534Y223218D01*
X567520Y223232D01*
X567510Y223249D01*
X567431Y223316D01*
X567356Y223388D01*
X567338Y223396D01*
X567323Y223409D01*
X567227Y223448D01*
X567133Y223491D01*
X567113Y223493D01*
X567095Y223501D01*
X566928Y223519D01*
X97282Y223519D01*
X97262Y223516D01*
X97243Y223518D01*
X97141Y223496D01*
X97039Y223480D01*
X97022Y223470D01*
X97002Y223466D01*
X96913Y223413D01*
X96822Y223364D01*
X96808Y223350D01*
X96791Y223340D01*
X96724Y223261D01*
X96652Y223186D01*
X96644Y223168D01*
X96631Y223153D01*
X96592Y223057D01*
X96549Y222963D01*
X96547Y222943D01*
X96539Y222925D01*
X96521Y222758D01*
X96521Y175732D01*
X96524Y175712D01*
X96522Y175693D01*
X96544Y175591D01*
X96560Y175489D01*
X96570Y175472D01*
X96574Y175452D01*
X96627Y175363D01*
X96676Y175272D01*
X96690Y175258D01*
X96700Y175241D01*
X96779Y175174D01*
X96854Y175102D01*
X96872Y175094D01*
X96887Y175081D01*
X96983Y175042D01*
X97077Y174999D01*
X97097Y174997D01*
X97115Y174989D01*
X97282Y174971D01*
X116587Y174971D01*
X116587Y167703D01*
X97282Y167703D01*
X97262Y167700D01*
X97243Y167702D01*
X97141Y167680D01*
X97039Y167663D01*
X97022Y167654D01*
X97002Y167650D01*
X96913Y167597D01*
X96822Y167548D01*
X96808Y167534D01*
X96791Y167524D01*
X96724Y167445D01*
X96652Y167370D01*
X96644Y167352D01*
X96631Y167337D01*
X96592Y167241D01*
X96549Y167147D01*
X96547Y167127D01*
X96539Y167109D01*
X96521Y166942D01*
X96521Y165418D01*
X96524Y165398D01*
X96522Y165379D01*
X96544Y165277D01*
X96560Y165175D01*
X96570Y165158D01*
X96574Y165138D01*
X96627Y165049D01*
X96676Y164958D01*
X96690Y164944D01*
X96700Y164927D01*
X96779Y164860D01*
X96854Y164789D01*
X96872Y164780D01*
X96887Y164767D01*
X96983Y164728D01*
X97077Y164685D01*
X97097Y164683D01*
X97115Y164675D01*
X97282Y164657D01*
X116587Y164657D01*
X116587Y157389D01*
X97282Y157389D01*
X97262Y157386D01*
X97243Y157388D01*
X97141Y157366D01*
X97039Y157350D01*
X97022Y157340D01*
X97002Y157336D01*
X96913Y157283D01*
X96822Y157234D01*
X96808Y157220D01*
X96791Y157210D01*
X96724Y157131D01*
X96652Y157056D01*
X96644Y157038D01*
X96631Y157023D01*
X96592Y156927D01*
X96549Y156833D01*
X96547Y156813D01*
X96539Y156795D01*
X96521Y156628D01*
X96521Y149788D01*
X96524Y149768D01*
X96522Y149749D01*
X96544Y149647D01*
X96560Y149545D01*
X96570Y149528D01*
X96574Y149508D01*
X96627Y149419D01*
X96676Y149328D01*
X96690Y149314D01*
X96700Y149297D01*
X96779Y149230D01*
X96854Y149158D01*
X96872Y149150D01*
X96887Y149137D01*
X96983Y149098D01*
X97077Y149055D01*
X97097Y149053D01*
X97115Y149045D01*
X97282Y149027D01*
X103684Y149027D01*
X103749Y149037D01*
X103814Y149038D01*
X103894Y149061D01*
X103927Y149066D01*
X103944Y149076D01*
X103975Y149085D01*
X104516Y149309D01*
X108844Y149309D01*
X109385Y149085D01*
X109449Y149070D01*
X109509Y149045D01*
X109592Y149036D01*
X109624Y149029D01*
X109644Y149030D01*
X109676Y149027D01*
X139823Y149027D01*
X142064Y148099D01*
X143276Y146886D01*
X143329Y146848D01*
X143376Y146802D01*
X143449Y146761D01*
X143476Y146742D01*
X143495Y146736D01*
X143523Y146721D01*
X145862Y145752D01*
X151034Y140580D01*
X151092Y140539D01*
X151144Y140489D01*
X151191Y140467D01*
X151233Y140437D01*
X151302Y140416D01*
X151367Y140386D01*
X151419Y140380D01*
X151469Y140365D01*
X151540Y140366D01*
X151611Y140359D01*
X151662Y140370D01*
X151714Y140371D01*
X151782Y140396D01*
X151852Y140411D01*
X151897Y140437D01*
X151945Y140455D01*
X152001Y140500D01*
X152063Y140537D01*
X152097Y140577D01*
X152137Y140609D01*
X152176Y140669D01*
X152223Y140724D01*
X152242Y140772D01*
X152270Y140816D01*
X152288Y140885D01*
X152315Y140952D01*
X152323Y141023D01*
X152331Y141055D01*
X152329Y141078D01*
X152333Y141119D01*
X152333Y149833D01*
X153261Y152074D01*
X154984Y153796D01*
X155063Y153845D01*
X155163Y153905D01*
X155167Y153909D01*
X155172Y153913D01*
X155247Y154003D01*
X155323Y154092D01*
X155325Y154097D01*
X155329Y154102D01*
X155371Y154211D01*
X155415Y154320D01*
X155416Y154327D01*
X155417Y154332D01*
X155418Y154350D01*
X155433Y154486D01*
X155433Y158865D01*
X155423Y158930D01*
X155422Y158996D01*
X155399Y159076D01*
X155394Y159108D01*
X155384Y159125D01*
X155375Y159157D01*
X154418Y161467D01*
X154418Y178893D01*
X155346Y181134D01*
X157061Y182849D01*
X159302Y183777D01*
X166243Y183777D01*
X166263Y183780D01*
X166282Y183778D01*
X166384Y183800D01*
X166486Y183816D01*
X166503Y183826D01*
X166523Y183830D01*
X166612Y183883D01*
X166703Y183932D01*
X166717Y183946D01*
X166734Y183956D01*
X166801Y184035D01*
X166873Y184110D01*
X166881Y184128D01*
X166894Y184143D01*
X166933Y184239D01*
X166976Y184333D01*
X166978Y184353D01*
X166986Y184371D01*
X167004Y184538D01*
X167004Y197827D01*
X177547Y197827D01*
X177547Y173442D01*
X177550Y173422D01*
X177548Y173403D01*
X177570Y173301D01*
X177587Y173199D01*
X177596Y173182D01*
X177600Y173162D01*
X177653Y173073D01*
X177702Y172982D01*
X177716Y172968D01*
X177726Y172951D01*
X177805Y172884D01*
X177880Y172813D01*
X177898Y172804D01*
X177913Y172791D01*
X178009Y172752D01*
X178103Y172709D01*
X178123Y172707D01*
X178141Y172699D01*
X178308Y172681D01*
X179832Y172681D01*
X179852Y172684D01*
X179871Y172682D01*
X179973Y172704D01*
X180075Y172721D01*
X180092Y172730D01*
X180112Y172734D01*
X180201Y172787D01*
X180292Y172836D01*
X180306Y172850D01*
X180323Y172860D01*
X180390Y172939D01*
X180461Y173014D01*
X180470Y173032D01*
X180483Y173047D01*
X180522Y173143D01*
X180565Y173237D01*
X180567Y173257D01*
X180575Y173275D01*
X180593Y173442D01*
X180593Y197827D01*
X191136Y197827D01*
X191136Y184538D01*
X191139Y184518D01*
X191137Y184499D01*
X191159Y184397D01*
X191175Y184295D01*
X191185Y184278D01*
X191189Y184258D01*
X191242Y184169D01*
X191291Y184078D01*
X191305Y184064D01*
X191315Y184047D01*
X191394Y183980D01*
X191469Y183908D01*
X191487Y183900D01*
X191502Y183887D01*
X191598Y183848D01*
X191692Y183805D01*
X191712Y183803D01*
X191730Y183795D01*
X191897Y183777D01*
X198838Y183777D01*
X201079Y182849D01*
X202794Y181134D01*
X203722Y178893D01*
X203722Y161798D01*
X203725Y161778D01*
X203723Y161759D01*
X203745Y161657D01*
X203761Y161555D01*
X203771Y161538D01*
X203775Y161518D01*
X203828Y161429D01*
X203877Y161338D01*
X203891Y161324D01*
X203901Y161307D01*
X203980Y161240D01*
X204055Y161168D01*
X204073Y161160D01*
X204088Y161147D01*
X204184Y161108D01*
X204278Y161065D01*
X204298Y161063D01*
X204316Y161055D01*
X204483Y161037D01*
X209902Y161037D01*
X209922Y161040D01*
X209941Y161038D01*
X210043Y161060D01*
X210145Y161076D01*
X210162Y161086D01*
X210182Y161090D01*
X210271Y161143D01*
X210362Y161192D01*
X210376Y161206D01*
X210393Y161216D01*
X210460Y161295D01*
X210532Y161370D01*
X210540Y161388D01*
X210553Y161403D01*
X210592Y161499D01*
X210635Y161593D01*
X210637Y161613D01*
X210645Y161631D01*
X210663Y161798D01*
X210663Y168423D01*
X211591Y170663D01*
X211655Y170727D01*
X211666Y170743D01*
X211682Y170755D01*
X211738Y170843D01*
X211798Y170926D01*
X211804Y170945D01*
X211815Y170962D01*
X211840Y171063D01*
X211871Y171161D01*
X211870Y171181D01*
X211875Y171201D01*
X211867Y171304D01*
X211864Y171407D01*
X211857Y171426D01*
X211856Y171446D01*
X211815Y171541D01*
X211780Y171638D01*
X211767Y171654D01*
X211759Y171672D01*
X211655Y171803D01*
X210411Y173046D01*
X209483Y175287D01*
X209483Y188213D01*
X210411Y190454D01*
X212126Y192169D01*
X212692Y192403D01*
X212772Y192452D01*
X212855Y192495D01*
X212876Y192517D01*
X212901Y192533D01*
X212961Y192604D01*
X213026Y192671D01*
X213039Y192699D01*
X213058Y192722D01*
X213092Y192809D01*
X213132Y192893D01*
X213136Y192923D01*
X213146Y192952D01*
X213150Y193045D01*
X213162Y193137D01*
X213156Y193175D01*
X213157Y193197D01*
X213148Y193229D01*
X213136Y193303D01*
X213039Y193666D01*
X213039Y197727D01*
X220218Y197727D01*
X220238Y197730D01*
X220257Y197728D01*
X220359Y197750D01*
X220461Y197767D01*
X220478Y197776D01*
X220498Y197780D01*
X220587Y197833D01*
X220678Y197882D01*
X220692Y197896D01*
X220709Y197906D01*
X220776Y197985D01*
X220847Y198060D01*
X220856Y198078D01*
X220869Y198093D01*
X220908Y198189D01*
X220951Y198283D01*
X220953Y198303D01*
X220961Y198321D01*
X220979Y198488D01*
X220979Y199251D01*
X220981Y199251D01*
X220981Y198488D01*
X220984Y198468D01*
X220982Y198449D01*
X221004Y198347D01*
X221021Y198245D01*
X221030Y198228D01*
X221034Y198208D01*
X221087Y198119D01*
X221136Y198028D01*
X221150Y198014D01*
X221160Y197997D01*
X221239Y197930D01*
X221314Y197859D01*
X221332Y197850D01*
X221347Y197837D01*
X221443Y197798D01*
X221537Y197755D01*
X221557Y197753D01*
X221575Y197745D01*
X221742Y197727D01*
X236728Y197727D01*
X236748Y197730D01*
X236767Y197728D01*
X236869Y197750D01*
X236971Y197767D01*
X236988Y197776D01*
X237008Y197780D01*
X237097Y197833D01*
X237188Y197882D01*
X237202Y197896D01*
X237219Y197906D01*
X237286Y197985D01*
X237357Y198060D01*
X237366Y198078D01*
X237379Y198093D01*
X237418Y198189D01*
X237461Y198283D01*
X237463Y198303D01*
X237471Y198321D01*
X237489Y198488D01*
X237489Y199251D01*
X237491Y199251D01*
X237491Y198488D01*
X237494Y198468D01*
X237492Y198449D01*
X237514Y198347D01*
X237531Y198245D01*
X237540Y198228D01*
X237544Y198208D01*
X237597Y198119D01*
X237646Y198028D01*
X237660Y198014D01*
X237670Y197997D01*
X237749Y197930D01*
X237824Y197859D01*
X237842Y197850D01*
X237857Y197837D01*
X237953Y197798D01*
X238047Y197755D01*
X238067Y197753D01*
X238085Y197745D01*
X238252Y197727D01*
X245963Y197727D01*
X245987Y197716D01*
X246033Y197711D01*
X246076Y197697D01*
X246154Y197697D01*
X246231Y197689D01*
X246276Y197699D01*
X246322Y197699D01*
X246453Y197737D01*
X246472Y197741D01*
X246476Y197744D01*
X246483Y197746D01*
X247077Y197992D01*
X265503Y197992D01*
X267744Y197064D01*
X269459Y195349D01*
X269807Y194508D01*
X269844Y194447D01*
X269874Y194382D01*
X269909Y194343D01*
X269936Y194299D01*
X269991Y194253D01*
X270040Y194200D01*
X270086Y194175D01*
X270126Y194142D01*
X270193Y194116D01*
X270256Y194082D01*
X270307Y194073D01*
X270355Y194054D01*
X270427Y194051D01*
X270498Y194038D01*
X270549Y194046D01*
X270601Y194044D01*
X270670Y194064D01*
X270741Y194074D01*
X270787Y194098D01*
X270837Y194112D01*
X270896Y194153D01*
X270960Y194185D01*
X270997Y194223D01*
X271039Y194252D01*
X271082Y194310D01*
X271132Y194361D01*
X271167Y194424D01*
X271186Y194450D01*
X271193Y194472D01*
X271213Y194508D01*
X271561Y195349D01*
X273276Y197064D01*
X275517Y197992D01*
X293943Y197992D01*
X296184Y197064D01*
X296704Y196543D01*
X296720Y196531D01*
X296733Y196516D01*
X296820Y196460D01*
X296904Y196399D01*
X296923Y196393D01*
X296940Y196383D01*
X297040Y196357D01*
X297139Y196327D01*
X297159Y196327D01*
X297178Y196323D01*
X297281Y196331D01*
X297385Y196333D01*
X297404Y196340D01*
X297424Y196342D01*
X297518Y196382D01*
X297616Y196418D01*
X297632Y196430D01*
X297650Y196438D01*
X297781Y196543D01*
X298486Y197249D01*
X299052Y197483D01*
X299132Y197532D01*
X299215Y197575D01*
X299236Y197597D01*
X299261Y197613D01*
X299321Y197684D01*
X299386Y197751D01*
X299399Y197779D01*
X299418Y197802D01*
X299452Y197889D01*
X299492Y197973D01*
X299496Y198003D01*
X299506Y198032D01*
X299510Y198125D01*
X299522Y198217D01*
X299516Y198255D01*
X299517Y198277D01*
X299508Y198309D01*
X299496Y198383D01*
X299399Y198745D01*
X299399Y202807D01*
X306578Y202807D01*
X306598Y202810D01*
X306617Y202808D01*
X306719Y202830D01*
X306821Y202847D01*
X306838Y202856D01*
X306858Y202860D01*
X306947Y202913D01*
X307038Y202962D01*
X307052Y202976D01*
X307069Y202986D01*
X307136Y203065D01*
X307207Y203140D01*
X307216Y203158D01*
X307229Y203173D01*
X307268Y203269D01*
X307311Y203363D01*
X307313Y203383D01*
X307321Y203401D01*
X307339Y203568D01*
X307339Y204331D01*
X308102Y204331D01*
X308122Y204334D01*
X308141Y204332D01*
X308243Y204354D01*
X308345Y204371D01*
X308362Y204380D01*
X308382Y204384D01*
X308471Y204437D01*
X308562Y204486D01*
X308576Y204500D01*
X308593Y204510D01*
X308660Y204589D01*
X308731Y204664D01*
X308740Y204682D01*
X308753Y204697D01*
X308792Y204793D01*
X308835Y204887D01*
X308837Y204907D01*
X308845Y204925D01*
X308863Y205092D01*
X308863Y212121D01*
X313074Y212121D01*
X313721Y211948D01*
X314300Y211613D01*
X314773Y211140D01*
X315108Y210561D01*
X315281Y209914D01*
X315281Y206462D01*
X315288Y206416D01*
X315286Y206369D01*
X315308Y206295D01*
X315320Y206219D01*
X315342Y206178D01*
X315355Y206133D01*
X315400Y206070D01*
X315436Y206002D01*
X315469Y205970D01*
X315496Y205932D01*
X315558Y205886D01*
X315614Y205833D01*
X315656Y205813D01*
X315694Y205785D01*
X315767Y205762D01*
X315837Y205729D01*
X315883Y205724D01*
X315928Y205710D01*
X316005Y205710D01*
X316081Y205702D01*
X316103Y205707D01*
X340633Y205707D01*
X342874Y204779D01*
X344589Y203064D01*
X345517Y200823D01*
X345517Y193548D01*
X345520Y193528D01*
X345518Y193509D01*
X345540Y193407D01*
X345556Y193305D01*
X345566Y193288D01*
X345570Y193268D01*
X345623Y193179D01*
X345672Y193088D01*
X345686Y193074D01*
X345696Y193057D01*
X345775Y192990D01*
X345850Y192918D01*
X345868Y192910D01*
X345883Y192897D01*
X345979Y192858D01*
X346073Y192815D01*
X346093Y192813D01*
X346111Y192805D01*
X346278Y192787D01*
X374603Y192787D01*
X374674Y192798D01*
X374746Y192800D01*
X374795Y192818D01*
X374846Y192826D01*
X374909Y192860D01*
X374977Y192885D01*
X375017Y192917D01*
X375064Y192942D01*
X375113Y192994D01*
X375169Y193038D01*
X375197Y193082D01*
X375233Y193120D01*
X375263Y193185D01*
X375302Y193245D01*
X375315Y193296D01*
X375337Y193343D01*
X375344Y193414D01*
X375362Y193484D01*
X375358Y193536D01*
X375364Y193587D01*
X375348Y193658D01*
X375343Y193729D01*
X375322Y193777D01*
X375311Y193828D01*
X375275Y193889D01*
X375246Y193955D01*
X375202Y194011D01*
X375185Y194039D01*
X375167Y194054D01*
X375142Y194086D01*
X374053Y195174D01*
X373125Y197415D01*
X373125Y212033D01*
X374053Y214274D01*
X375768Y215989D01*
X378009Y216917D01*
X402787Y216917D01*
X405028Y215989D01*
X405116Y215900D01*
X405190Y215847D01*
X405260Y215787D01*
X405290Y215775D01*
X405316Y215756D01*
X405403Y215729D01*
X405488Y215695D01*
X405529Y215691D01*
X405551Y215684D01*
X405583Y215685D01*
X405655Y215677D01*
X409419Y215677D01*
X409509Y215691D01*
X409600Y215699D01*
X409630Y215711D01*
X409662Y215716D01*
X409743Y215759D01*
X409827Y215795D01*
X409859Y215821D01*
X409879Y215832D01*
X409902Y215855D01*
X409958Y215900D01*
X411726Y217669D01*
X413967Y218597D01*
X434393Y218597D01*
X436634Y217669D01*
X438402Y215900D01*
X438476Y215847D01*
X438546Y215787D01*
X438576Y215775D01*
X438602Y215756D01*
X438689Y215729D01*
X438774Y215695D01*
X438815Y215691D01*
X438837Y215684D01*
X438869Y215685D01*
X438941Y215677D01*
X448573Y215677D01*
X448654Y215643D01*
X448742Y215622D01*
X448829Y215594D01*
X448862Y215594D01*
X448893Y215587D01*
X448984Y215596D01*
X449075Y215596D01*
X449115Y215608D01*
X449138Y215610D01*
X449167Y215623D01*
X449236Y215643D01*
X449317Y215677D01*
X461099Y215677D01*
X461189Y215691D01*
X461280Y215699D01*
X461310Y215711D01*
X461342Y215716D01*
X461423Y215759D01*
X461507Y215795D01*
X461539Y215821D01*
X461559Y215832D01*
X461582Y215855D01*
X461638Y215900D01*
X462726Y216989D01*
X464967Y217917D01*
X480093Y217917D01*
X482334Y216989D01*
X484049Y215274D01*
X484977Y213033D01*
X484977Y195907D01*
X484049Y193666D01*
X482334Y191951D01*
X480093Y191023D01*
X464967Y191023D01*
X464923Y191041D01*
X464879Y191052D01*
X464837Y191071D01*
X464760Y191080D01*
X464684Y191098D01*
X464638Y191093D01*
X464593Y191098D01*
X464517Y191082D01*
X464439Y191075D01*
X464397Y191056D01*
X464352Y191046D01*
X464285Y191006D01*
X464214Y190975D01*
X464180Y190944D01*
X464141Y190920D01*
X464091Y190861D01*
X464033Y190808D01*
X464011Y190768D01*
X463981Y190733D01*
X463952Y190661D01*
X463915Y190593D01*
X463906Y190548D01*
X463889Y190505D01*
X463874Y190369D01*
X463871Y190351D01*
X463872Y190346D01*
X463871Y190338D01*
X463871Y188353D01*
X456692Y188353D01*
X456672Y188350D01*
X456653Y188352D01*
X456551Y188330D01*
X456449Y188313D01*
X456432Y188304D01*
X456412Y188300D01*
X456323Y188247D01*
X456232Y188198D01*
X456218Y188184D01*
X456201Y188174D01*
X456134Y188095D01*
X456063Y188020D01*
X456054Y188002D01*
X456041Y187987D01*
X456002Y187891D01*
X455959Y187797D01*
X455957Y187777D01*
X455949Y187759D01*
X455931Y187592D01*
X455931Y186829D01*
X455929Y186829D01*
X455929Y187592D01*
X455926Y187612D01*
X455928Y187631D01*
X455906Y187733D01*
X455889Y187835D01*
X455880Y187852D01*
X455876Y187872D01*
X455823Y187961D01*
X455774Y188052D01*
X455760Y188066D01*
X455750Y188083D01*
X455671Y188150D01*
X455596Y188221D01*
X455578Y188230D01*
X455563Y188243D01*
X455467Y188282D01*
X455373Y188325D01*
X455353Y188327D01*
X455335Y188335D01*
X455168Y188353D01*
X442722Y188353D01*
X442702Y188350D01*
X442683Y188352D01*
X442581Y188330D01*
X442479Y188313D01*
X442462Y188304D01*
X442442Y188300D01*
X442353Y188247D01*
X442262Y188198D01*
X442248Y188184D01*
X442231Y188174D01*
X442164Y188095D01*
X442093Y188020D01*
X442084Y188002D01*
X442071Y187987D01*
X442032Y187891D01*
X441989Y187797D01*
X441987Y187777D01*
X441979Y187759D01*
X441961Y187592D01*
X441961Y186829D01*
X441198Y186829D01*
X441178Y186826D01*
X441159Y186828D01*
X441057Y186806D01*
X440955Y186789D01*
X440938Y186780D01*
X440918Y186776D01*
X440829Y186723D01*
X440738Y186674D01*
X440724Y186660D01*
X440707Y186650D01*
X440640Y186571D01*
X440569Y186496D01*
X440560Y186478D01*
X440547Y186463D01*
X440508Y186367D01*
X440465Y186273D01*
X440463Y186253D01*
X440455Y186235D01*
X440437Y186068D01*
X440437Y179039D01*
X436482Y179039D01*
X436462Y179036D01*
X436443Y179038D01*
X436341Y179016D01*
X436239Y179000D01*
X436222Y178990D01*
X436202Y178986D01*
X436113Y178933D01*
X436022Y178884D01*
X436008Y178870D01*
X435991Y178860D01*
X435924Y178781D01*
X435852Y178706D01*
X435844Y178688D01*
X435831Y178673D01*
X435792Y178577D01*
X435749Y178483D01*
X435747Y178463D01*
X435739Y178445D01*
X435721Y178278D01*
X435721Y178023D01*
X425703Y178023D01*
X425703Y187041D01*
X433258Y187041D01*
X433278Y187044D01*
X433297Y187042D01*
X433399Y187064D01*
X433501Y187080D01*
X433518Y187090D01*
X433538Y187094D01*
X433627Y187147D01*
X433718Y187196D01*
X433732Y187210D01*
X433749Y187220D01*
X433816Y187299D01*
X433888Y187374D01*
X433896Y187392D01*
X433909Y187407D01*
X433948Y187503D01*
X433991Y187597D01*
X433993Y187617D01*
X434001Y187635D01*
X434019Y187802D01*
X434019Y189642D01*
X434016Y189662D01*
X434018Y189681D01*
X433996Y189783D01*
X433980Y189885D01*
X433970Y189902D01*
X433966Y189922D01*
X433913Y190011D01*
X433864Y190102D01*
X433850Y190116D01*
X433840Y190133D01*
X433761Y190200D01*
X433686Y190272D01*
X433668Y190280D01*
X433653Y190293D01*
X433557Y190332D01*
X433463Y190375D01*
X433443Y190377D01*
X433425Y190385D01*
X433258Y190403D01*
X413967Y190403D01*
X411726Y191331D01*
X409958Y193100D01*
X409884Y193153D01*
X409814Y193213D01*
X409784Y193225D01*
X409758Y193244D01*
X409671Y193271D01*
X409586Y193305D01*
X409545Y193309D01*
X409523Y193316D01*
X409491Y193315D01*
X409419Y193323D01*
X406417Y193323D01*
X406346Y193312D01*
X406274Y193310D01*
X406225Y193292D01*
X406174Y193284D01*
X406111Y193250D01*
X406043Y193225D01*
X406003Y193193D01*
X405956Y193168D01*
X405907Y193116D01*
X405851Y193072D01*
X405823Y193028D01*
X405787Y192990D01*
X405757Y192925D01*
X405718Y192865D01*
X405705Y192814D01*
X405683Y192767D01*
X405676Y192696D01*
X405658Y192626D01*
X405662Y192574D01*
X405656Y192523D01*
X405672Y192452D01*
X405677Y192381D01*
X405698Y192333D01*
X405709Y192282D01*
X405745Y192221D01*
X405774Y192155D01*
X405818Y192099D01*
X405835Y192071D01*
X405853Y192056D01*
X405878Y192024D01*
X406743Y191160D01*
X407671Y188919D01*
X407671Y174301D01*
X406743Y172060D01*
X405028Y170345D01*
X402787Y169417D01*
X378009Y169417D01*
X375696Y170375D01*
X375633Y170390D01*
X375572Y170415D01*
X375489Y170424D01*
X375457Y170431D01*
X375438Y170430D01*
X375405Y170433D01*
X366272Y170433D01*
X366252Y170430D01*
X366233Y170432D01*
X366131Y170410D01*
X366029Y170394D01*
X366012Y170384D01*
X365992Y170380D01*
X365903Y170327D01*
X365812Y170278D01*
X365798Y170264D01*
X365781Y170254D01*
X365714Y170175D01*
X365642Y170100D01*
X365634Y170082D01*
X365621Y170067D01*
X365582Y169971D01*
X365539Y169877D01*
X365537Y169857D01*
X365529Y169839D01*
X365511Y169672D01*
X365511Y148578D01*
X365530Y148463D01*
X365547Y148347D01*
X365549Y148341D01*
X365550Y148335D01*
X365605Y148232D01*
X365658Y148128D01*
X365663Y148123D01*
X365666Y148118D01*
X365750Y148038D01*
X365834Y147955D01*
X365840Y147952D01*
X365844Y147948D01*
X365861Y147940D01*
X365981Y147874D01*
X366804Y147534D01*
X368519Y145819D01*
X368867Y144978D01*
X368904Y144917D01*
X368934Y144852D01*
X368969Y144813D01*
X368996Y144769D01*
X369051Y144723D01*
X369100Y144670D01*
X369146Y144645D01*
X369186Y144612D01*
X369253Y144586D01*
X369316Y144552D01*
X369367Y144543D01*
X369415Y144524D01*
X369487Y144521D01*
X369558Y144508D01*
X369609Y144516D01*
X369661Y144514D01*
X369730Y144534D01*
X369801Y144544D01*
X369847Y144568D01*
X369897Y144582D01*
X369956Y144623D01*
X370020Y144655D01*
X370057Y144693D01*
X370099Y144722D01*
X370142Y144780D01*
X370192Y144831D01*
X370227Y144894D01*
X370246Y144920D01*
X370253Y144942D01*
X370273Y144978D01*
X370621Y145819D01*
X372336Y147534D01*
X374577Y148462D01*
X378321Y148462D01*
X378345Y148466D01*
X378369Y148463D01*
X378466Y148485D01*
X378564Y148501D01*
X378585Y148513D01*
X378609Y148518D01*
X378693Y148570D01*
X378781Y148617D01*
X378798Y148634D01*
X378818Y148647D01*
X378882Y148723D01*
X378950Y148795D01*
X378961Y148817D01*
X378976Y148835D01*
X379012Y148928D01*
X379054Y149018D01*
X379057Y149042D01*
X379066Y149064D01*
X379070Y149164D01*
X379081Y149262D01*
X379076Y149286D01*
X379077Y149310D01*
X379050Y149406D01*
X379029Y149503D01*
X379017Y149524D01*
X379010Y149547D01*
X378954Y149629D01*
X378903Y149714D01*
X378884Y149730D01*
X378871Y149749D01*
X378792Y149809D01*
X378716Y149874D01*
X378693Y149883D01*
X378674Y149897D01*
X378518Y149958D01*
X378241Y150032D01*
X377662Y150367D01*
X377189Y150840D01*
X376854Y151419D01*
X376681Y152066D01*
X376681Y156973D01*
X389636Y156973D01*
X389656Y156976D01*
X389675Y156974D01*
X389777Y156996D01*
X389879Y157013D01*
X389896Y157022D01*
X389916Y157026D01*
X390005Y157079D01*
X390096Y157128D01*
X390110Y157142D01*
X390127Y157152D01*
X390194Y157231D01*
X390265Y157306D01*
X390274Y157324D01*
X390287Y157339D01*
X390326Y157435D01*
X390369Y157529D01*
X390371Y157549D01*
X390379Y157567D01*
X390397Y157734D01*
X390397Y158497D01*
X390399Y158497D01*
X390399Y157734D01*
X390402Y157714D01*
X390400Y157695D01*
X390422Y157593D01*
X390439Y157491D01*
X390448Y157474D01*
X390452Y157454D01*
X390505Y157365D01*
X390554Y157274D01*
X390568Y157260D01*
X390578Y157243D01*
X390657Y157176D01*
X390732Y157105D01*
X390750Y157096D01*
X390765Y157083D01*
X390861Y157044D01*
X390955Y157001D01*
X390975Y156999D01*
X390993Y156991D01*
X391160Y156973D01*
X404115Y156973D01*
X404115Y152066D01*
X403942Y151419D01*
X403607Y150840D01*
X403134Y150367D01*
X402555Y150032D01*
X401908Y149859D01*
X393456Y149859D01*
X393360Y149844D01*
X393263Y149834D01*
X393239Y149824D01*
X393213Y149820D01*
X393127Y149774D01*
X393038Y149734D01*
X393019Y149717D01*
X392996Y149704D01*
X392929Y149634D01*
X392857Y149568D01*
X392844Y149545D01*
X392826Y149526D01*
X392785Y149438D01*
X392738Y149352D01*
X392734Y149327D01*
X392723Y149303D01*
X392712Y149206D01*
X392695Y149110D01*
X392698Y149084D01*
X392696Y149059D01*
X392716Y148963D01*
X392730Y148867D01*
X392742Y148844D01*
X392748Y148818D01*
X392798Y148735D01*
X392842Y148648D01*
X392861Y148629D01*
X392874Y148607D01*
X392948Y148544D01*
X393018Y148476D01*
X393046Y148460D01*
X393061Y148447D01*
X393092Y148435D01*
X393164Y148395D01*
X395244Y147534D01*
X396959Y145819D01*
X397887Y143578D01*
X397887Y143032D01*
X397890Y143012D01*
X397888Y142993D01*
X397910Y142891D01*
X397926Y142789D01*
X397936Y142772D01*
X397940Y142752D01*
X397993Y142663D01*
X398042Y142572D01*
X398056Y142558D01*
X398066Y142541D01*
X398145Y142474D01*
X398220Y142402D01*
X398238Y142394D01*
X398253Y142381D01*
X398349Y142342D01*
X398443Y142299D01*
X398463Y142297D01*
X398481Y142289D01*
X398648Y142271D01*
X402337Y142271D01*
X402337Y135242D01*
X402340Y135222D01*
X402338Y135203D01*
X402360Y135101D01*
X402377Y134999D01*
X402386Y134982D01*
X402390Y134962D01*
X402443Y134873D01*
X402492Y134782D01*
X402506Y134768D01*
X402516Y134751D01*
X402595Y134684D01*
X402670Y134613D01*
X402688Y134604D01*
X402703Y134591D01*
X402799Y134552D01*
X402893Y134509D01*
X402913Y134507D01*
X402931Y134499D01*
X403098Y134481D01*
X403861Y134481D01*
X403861Y133718D01*
X403864Y133698D01*
X403862Y133679D01*
X403884Y133577D01*
X403901Y133475D01*
X403910Y133458D01*
X403914Y133438D01*
X403967Y133349D01*
X404016Y133258D01*
X404030Y133244D01*
X404040Y133227D01*
X404119Y133160D01*
X404194Y133089D01*
X404212Y133080D01*
X404227Y133067D01*
X404323Y133028D01*
X404417Y132985D01*
X404437Y132983D01*
X404455Y132975D01*
X404622Y132957D01*
X418338Y132957D01*
X418358Y132960D01*
X418377Y132958D01*
X418479Y132980D01*
X418581Y132997D01*
X418598Y133006D01*
X418618Y133010D01*
X418707Y133063D01*
X418798Y133112D01*
X418812Y133126D01*
X418829Y133136D01*
X418896Y133215D01*
X418967Y133290D01*
X418976Y133308D01*
X418989Y133323D01*
X419028Y133419D01*
X419071Y133513D01*
X419073Y133533D01*
X419081Y133551D01*
X419099Y133718D01*
X419099Y134481D01*
X419101Y134481D01*
X419101Y133718D01*
X419104Y133698D01*
X419102Y133679D01*
X419124Y133577D01*
X419141Y133475D01*
X419150Y133458D01*
X419154Y133438D01*
X419207Y133349D01*
X419256Y133258D01*
X419270Y133244D01*
X419280Y133227D01*
X419359Y133160D01*
X419434Y133089D01*
X419452Y133080D01*
X419467Y133067D01*
X419563Y133028D01*
X419657Y132985D01*
X419677Y132983D01*
X419695Y132975D01*
X419862Y132957D01*
X434848Y132957D01*
X434868Y132960D01*
X434887Y132958D01*
X434989Y132980D01*
X435091Y132997D01*
X435108Y133006D01*
X435128Y133010D01*
X435217Y133063D01*
X435308Y133112D01*
X435322Y133126D01*
X435339Y133136D01*
X435406Y133215D01*
X435477Y133290D01*
X435486Y133308D01*
X435499Y133323D01*
X435538Y133419D01*
X435581Y133513D01*
X435583Y133533D01*
X435591Y133551D01*
X435609Y133718D01*
X435609Y134481D01*
X435611Y134481D01*
X435611Y133718D01*
X435614Y133698D01*
X435612Y133679D01*
X435634Y133577D01*
X435651Y133475D01*
X435660Y133458D01*
X435664Y133438D01*
X435717Y133349D01*
X435766Y133258D01*
X435780Y133244D01*
X435790Y133227D01*
X435869Y133160D01*
X435944Y133089D01*
X435962Y133080D01*
X435977Y133067D01*
X436073Y133028D01*
X436167Y132985D01*
X436187Y132983D01*
X436205Y132975D01*
X436372Y132957D01*
X443551Y132957D01*
X443551Y128895D01*
X443454Y128533D01*
X443444Y128441D01*
X443428Y128349D01*
X443432Y128319D01*
X443429Y128289D01*
X443450Y128198D01*
X443464Y128105D01*
X443477Y128078D01*
X443484Y128049D01*
X443533Y127969D01*
X443575Y127886D01*
X443597Y127865D01*
X443613Y127839D01*
X443684Y127779D01*
X443751Y127714D01*
X443784Y127695D01*
X443801Y127681D01*
X443832Y127669D01*
X443898Y127633D01*
X444464Y127399D01*
X446179Y125684D01*
X447107Y123443D01*
X447107Y110517D01*
X446179Y108276D01*
X444802Y106900D01*
X444760Y106842D01*
X444711Y106790D01*
X444689Y106743D01*
X444659Y106701D01*
X444638Y106632D01*
X444607Y106567D01*
X444602Y106515D01*
X444586Y106465D01*
X444588Y106394D01*
X444580Y106323D01*
X444591Y106272D01*
X444593Y106220D01*
X444617Y106152D01*
X444633Y106082D01*
X444659Y106037D01*
X444677Y105989D01*
X444722Y105933D01*
X444759Y105871D01*
X444798Y105837D01*
X444831Y105797D01*
X444891Y105758D01*
X444946Y105711D01*
X444994Y105692D01*
X445038Y105664D01*
X445107Y105646D01*
X445174Y105619D01*
X445245Y105611D01*
X445276Y105603D01*
X445300Y105605D01*
X445341Y105601D01*
X453454Y105601D01*
X454101Y105428D01*
X454680Y105093D01*
X455153Y104620D01*
X455488Y104041D01*
X455661Y103394D01*
X455661Y100583D01*
X441882Y100583D01*
X441862Y100580D01*
X441843Y100582D01*
X441741Y100560D01*
X441639Y100543D01*
X441622Y100534D01*
X441602Y100530D01*
X441513Y100477D01*
X441422Y100428D01*
X441408Y100414D01*
X441391Y100404D01*
X441324Y100325D01*
X441253Y100250D01*
X441244Y100232D01*
X441231Y100217D01*
X441192Y100121D01*
X441149Y100027D01*
X441147Y100007D01*
X441139Y99989D01*
X441121Y99822D01*
X441121Y98298D01*
X441124Y98278D01*
X441122Y98259D01*
X441144Y98157D01*
X441161Y98055D01*
X441170Y98038D01*
X441174Y98018D01*
X441227Y97929D01*
X441276Y97838D01*
X441290Y97824D01*
X441300Y97807D01*
X441379Y97740D01*
X441454Y97669D01*
X441472Y97660D01*
X441487Y97647D01*
X441583Y97608D01*
X441677Y97565D01*
X441697Y97563D01*
X441715Y97555D01*
X441882Y97537D01*
X455661Y97537D01*
X455661Y95361D01*
X455672Y95290D01*
X455674Y95218D01*
X455692Y95169D01*
X455700Y95118D01*
X455734Y95055D01*
X455759Y94987D01*
X455791Y94946D01*
X455816Y94900D01*
X455867Y94851D01*
X455912Y94795D01*
X455956Y94767D01*
X455994Y94731D01*
X456059Y94701D01*
X456119Y94662D01*
X456170Y94649D01*
X456217Y94627D01*
X456288Y94620D01*
X456358Y94602D01*
X456410Y94606D01*
X456461Y94600D01*
X456532Y94616D01*
G37*
G36*
X566948Y53344D02*
X566948Y53344D01*
X566967Y53342D01*
X567069Y53364D01*
X567171Y53380D01*
X567188Y53390D01*
X567208Y53394D01*
X567297Y53447D01*
X567388Y53496D01*
X567402Y53510D01*
X567419Y53520D01*
X567486Y53599D01*
X567558Y53674D01*
X567566Y53692D01*
X567579Y53707D01*
X567618Y53803D01*
X567661Y53897D01*
X567663Y53917D01*
X567671Y53935D01*
X567689Y54102D01*
X567689Y101128D01*
X567686Y101148D01*
X567688Y101167D01*
X567666Y101269D01*
X567650Y101371D01*
X567640Y101388D01*
X567636Y101408D01*
X567583Y101497D01*
X567534Y101588D01*
X567520Y101602D01*
X567510Y101619D01*
X567431Y101686D01*
X567356Y101758D01*
X567338Y101766D01*
X567323Y101779D01*
X567227Y101818D01*
X567133Y101861D01*
X567113Y101863D01*
X567095Y101871D01*
X566928Y101889D01*
X548893Y101889D01*
X548893Y109157D01*
X566928Y109157D01*
X566948Y109160D01*
X566967Y109158D01*
X567069Y109180D01*
X567171Y109197D01*
X567188Y109206D01*
X567208Y109210D01*
X567297Y109263D01*
X567388Y109312D01*
X567402Y109326D01*
X567419Y109336D01*
X567486Y109415D01*
X567558Y109490D01*
X567566Y109508D01*
X567579Y109523D01*
X567618Y109619D01*
X567661Y109713D01*
X567663Y109733D01*
X567671Y109751D01*
X567689Y109918D01*
X567689Y111442D01*
X567686Y111462D01*
X567688Y111481D01*
X567666Y111583D01*
X567650Y111685D01*
X567640Y111702D01*
X567636Y111722D01*
X567583Y111811D01*
X567534Y111902D01*
X567520Y111916D01*
X567510Y111933D01*
X567431Y112000D01*
X567356Y112071D01*
X567338Y112080D01*
X567323Y112093D01*
X567227Y112132D01*
X567133Y112175D01*
X567113Y112177D01*
X567095Y112185D01*
X566928Y112203D01*
X548893Y112203D01*
X548893Y119471D01*
X566928Y119471D01*
X566948Y119474D01*
X566967Y119472D01*
X567069Y119494D01*
X567171Y119510D01*
X567188Y119520D01*
X567208Y119524D01*
X567297Y119577D01*
X567388Y119626D01*
X567402Y119640D01*
X567419Y119650D01*
X567486Y119729D01*
X567558Y119804D01*
X567566Y119822D01*
X567579Y119837D01*
X567618Y119933D01*
X567661Y120027D01*
X567663Y120047D01*
X567671Y120065D01*
X567689Y120232D01*
X567689Y127072D01*
X567686Y127092D01*
X567688Y127111D01*
X567666Y127213D01*
X567650Y127315D01*
X567640Y127332D01*
X567636Y127352D01*
X567583Y127441D01*
X567534Y127532D01*
X567520Y127546D01*
X567510Y127563D01*
X567431Y127630D01*
X567356Y127702D01*
X567338Y127710D01*
X567323Y127723D01*
X567227Y127762D01*
X567133Y127805D01*
X567113Y127807D01*
X567095Y127815D01*
X566928Y127833D01*
X559256Y127833D01*
X559191Y127823D01*
X559126Y127822D01*
X559046Y127799D01*
X559013Y127794D01*
X558996Y127784D01*
X558965Y127775D01*
X558424Y127551D01*
X554096Y127551D01*
X553555Y127775D01*
X553491Y127790D01*
X553431Y127815D01*
X553348Y127824D01*
X553316Y127831D01*
X553296Y127830D01*
X553264Y127833D01*
X525657Y127833D01*
X523416Y128761D01*
X523116Y129062D01*
X523042Y129115D01*
X522972Y129175D01*
X522942Y129187D01*
X522916Y129206D01*
X522829Y129233D01*
X522744Y129267D01*
X522703Y129271D01*
X522681Y129278D01*
X522649Y129277D01*
X522577Y129285D01*
X519238Y129285D01*
X519218Y129282D01*
X519199Y129284D01*
X519097Y129262D01*
X518995Y129246D01*
X518978Y129236D01*
X518958Y129232D01*
X518869Y129179D01*
X518778Y129130D01*
X518764Y129116D01*
X518747Y129106D01*
X518680Y129027D01*
X518608Y128952D01*
X518600Y128934D01*
X518587Y128919D01*
X518548Y128823D01*
X518505Y128729D01*
X518503Y128709D01*
X518495Y128691D01*
X518477Y128524D01*
X518477Y120917D01*
X517549Y118676D01*
X515834Y116961D01*
X513593Y116033D01*
X510286Y116033D01*
X510266Y116030D01*
X510247Y116032D01*
X510145Y116010D01*
X510043Y115994D01*
X510026Y115984D01*
X510006Y115980D01*
X509917Y115927D01*
X509826Y115878D01*
X509812Y115864D01*
X509795Y115854D01*
X509728Y115775D01*
X509656Y115700D01*
X509648Y115682D01*
X509635Y115667D01*
X509596Y115570D01*
X509553Y115477D01*
X509551Y115457D01*
X509543Y115439D01*
X509525Y115272D01*
X509525Y113173D01*
X509539Y113083D01*
X509547Y112992D01*
X509559Y112962D01*
X509564Y112930D01*
X509607Y112849D01*
X509643Y112765D01*
X509669Y112733D01*
X509680Y112713D01*
X509703Y112690D01*
X509748Y112634D01*
X510949Y111434D01*
X511877Y109193D01*
X511877Y96267D01*
X511050Y94271D01*
X511029Y94183D01*
X511001Y94096D01*
X511001Y94063D01*
X510994Y94032D01*
X511002Y93941D01*
X511003Y93850D01*
X511015Y93810D01*
X511017Y93787D01*
X511030Y93758D01*
X511050Y93689D01*
X511877Y91693D01*
X511877Y78767D01*
X510949Y76526D01*
X509234Y74811D01*
X506993Y73883D01*
X493767Y73883D01*
X491526Y74811D01*
X489811Y76526D01*
X489721Y76745D01*
X489659Y76845D01*
X489599Y76945D01*
X489595Y76949D01*
X489591Y76954D01*
X489501Y77029D01*
X489412Y77105D01*
X489407Y77107D01*
X489402Y77111D01*
X489293Y77153D01*
X489184Y77197D01*
X489177Y77198D01*
X489172Y77199D01*
X489154Y77200D01*
X489017Y77215D01*
X478782Y77215D01*
X478718Y77205D01*
X478652Y77204D01*
X478572Y77181D01*
X478540Y77176D01*
X478523Y77166D01*
X478491Y77157D01*
X478131Y77008D01*
X478031Y76946D01*
X477931Y76886D01*
X477927Y76882D01*
X477922Y76878D01*
X477847Y76789D01*
X477771Y76700D01*
X477769Y76694D01*
X477765Y76689D01*
X477723Y76581D01*
X477679Y76471D01*
X477678Y76464D01*
X477677Y76459D01*
X477676Y76441D01*
X477661Y76305D01*
X477661Y75183D01*
X468882Y75183D01*
X468862Y75180D01*
X468843Y75182D01*
X468741Y75160D01*
X468639Y75143D01*
X468622Y75134D01*
X468602Y75130D01*
X468513Y75077D01*
X468422Y75028D01*
X468408Y75014D01*
X468391Y75004D01*
X468324Y74925D01*
X468253Y74850D01*
X468244Y74832D01*
X468231Y74817D01*
X468192Y74721D01*
X468149Y74627D01*
X468147Y74607D01*
X468139Y74589D01*
X468121Y74422D01*
X468121Y73659D01*
X468119Y73659D01*
X468119Y74422D01*
X468116Y74442D01*
X468118Y74461D01*
X468096Y74563D01*
X468079Y74665D01*
X468070Y74682D01*
X468066Y74702D01*
X468013Y74791D01*
X467964Y74882D01*
X467950Y74896D01*
X467940Y74913D01*
X467861Y74980D01*
X467786Y75051D01*
X467768Y75060D01*
X467753Y75073D01*
X467657Y75112D01*
X467563Y75155D01*
X467543Y75157D01*
X467525Y75165D01*
X467358Y75183D01*
X458579Y75183D01*
X458579Y76305D01*
X458560Y76419D01*
X458543Y76536D01*
X458541Y76541D01*
X458540Y76547D01*
X458485Y76650D01*
X458432Y76755D01*
X458427Y76759D01*
X458424Y76765D01*
X458340Y76845D01*
X458256Y76927D01*
X458250Y76931D01*
X458246Y76934D01*
X458229Y76942D01*
X458109Y77008D01*
X457666Y77191D01*
X455951Y78906D01*
X455023Y81147D01*
X455023Y91573D01*
X455069Y91684D01*
X455074Y91706D01*
X455085Y91725D01*
X455102Y91825D01*
X455126Y91924D01*
X455124Y91945D01*
X455127Y91967D01*
X455112Y92068D01*
X455103Y92168D01*
X455094Y92189D01*
X455090Y92210D01*
X455044Y92300D01*
X455003Y92393D01*
X454988Y92409D01*
X454978Y92429D01*
X454905Y92500D01*
X454836Y92574D01*
X454817Y92585D01*
X454801Y92600D01*
X454709Y92644D01*
X454621Y92693D01*
X454599Y92697D01*
X454579Y92706D01*
X454478Y92719D01*
X454379Y92737D01*
X454357Y92733D01*
X454335Y92736D01*
X454169Y92711D01*
X453454Y92519D01*
X449964Y92519D01*
X449918Y92512D01*
X449872Y92514D01*
X449798Y92492D01*
X449721Y92480D01*
X449680Y92458D01*
X449636Y92445D01*
X449572Y92401D01*
X449504Y92364D01*
X449472Y92331D01*
X449434Y92305D01*
X449388Y92242D01*
X449334Y92186D01*
X449315Y92144D01*
X449287Y92107D01*
X449263Y92033D01*
X449231Y91963D01*
X449226Y91917D01*
X449211Y91873D01*
X449212Y91795D01*
X449204Y91719D01*
X449214Y91673D01*
X449214Y91627D01*
X449217Y91618D01*
X449217Y81147D01*
X448289Y78906D01*
X446574Y77191D01*
X446131Y77008D01*
X446031Y76946D01*
X445931Y76886D01*
X445927Y76882D01*
X445922Y76878D01*
X445847Y76788D01*
X445771Y76700D01*
X445769Y76694D01*
X445765Y76689D01*
X445723Y76581D01*
X445679Y76471D01*
X445678Y76464D01*
X445677Y76459D01*
X445676Y76441D01*
X445661Y76305D01*
X445661Y75183D01*
X436882Y75183D01*
X436862Y75180D01*
X436843Y75182D01*
X436741Y75160D01*
X436639Y75143D01*
X436622Y75134D01*
X436602Y75130D01*
X436513Y75077D01*
X436422Y75028D01*
X436408Y75014D01*
X436391Y75004D01*
X436324Y74925D01*
X436253Y74850D01*
X436244Y74832D01*
X436231Y74817D01*
X436192Y74721D01*
X436149Y74627D01*
X436147Y74607D01*
X436139Y74589D01*
X436121Y74422D01*
X436121Y73659D01*
X436119Y73659D01*
X436119Y74422D01*
X436116Y74442D01*
X436118Y74461D01*
X436096Y74563D01*
X436079Y74665D01*
X436070Y74682D01*
X436066Y74702D01*
X436013Y74791D01*
X435964Y74882D01*
X435950Y74896D01*
X435940Y74913D01*
X435861Y74980D01*
X435786Y75051D01*
X435768Y75060D01*
X435753Y75073D01*
X435657Y75112D01*
X435563Y75155D01*
X435543Y75157D01*
X435525Y75165D01*
X435358Y75183D01*
X426579Y75183D01*
X426579Y76305D01*
X426560Y76419D01*
X426543Y76536D01*
X426541Y76541D01*
X426540Y76547D01*
X426485Y76650D01*
X426432Y76755D01*
X426427Y76759D01*
X426424Y76765D01*
X426340Y76845D01*
X426256Y76927D01*
X426250Y76931D01*
X426246Y76934D01*
X426229Y76942D01*
X426109Y77008D01*
X425666Y77191D01*
X425358Y77500D01*
X425284Y77553D01*
X425214Y77613D01*
X425184Y77625D01*
X425158Y77644D01*
X425071Y77671D01*
X424986Y77705D01*
X424945Y77709D01*
X424923Y77716D01*
X424891Y77715D01*
X424819Y77723D01*
X400128Y77723D01*
X400108Y77720D01*
X400089Y77722D01*
X399987Y77700D01*
X399885Y77684D01*
X399868Y77674D01*
X399848Y77670D01*
X399759Y77617D01*
X399668Y77568D01*
X399654Y77554D01*
X399637Y77544D01*
X399570Y77465D01*
X399498Y77390D01*
X399490Y77372D01*
X399477Y77357D01*
X399438Y77261D01*
X399395Y77167D01*
X399393Y77147D01*
X399385Y77129D01*
X399367Y76962D01*
X399367Y73307D01*
X398439Y71066D01*
X396724Y69351D01*
X394483Y68423D01*
X370057Y68423D01*
X367816Y69351D01*
X366101Y71066D01*
X365173Y73307D01*
X365173Y76454D01*
X365170Y76474D01*
X365172Y76493D01*
X365150Y76595D01*
X365134Y76697D01*
X365124Y76714D01*
X365120Y76734D01*
X365067Y76823D01*
X365018Y76914D01*
X365004Y76928D01*
X364994Y76945D01*
X364915Y77012D01*
X364840Y77084D01*
X364822Y77092D01*
X364807Y77105D01*
X364711Y77144D01*
X364617Y77187D01*
X364597Y77189D01*
X364579Y77197D01*
X364412Y77215D01*
X332321Y77215D01*
X332207Y77196D01*
X332090Y77179D01*
X332085Y77177D01*
X332079Y77176D01*
X331976Y77121D01*
X331871Y77068D01*
X331867Y77063D01*
X331861Y77060D01*
X331781Y76976D01*
X331699Y76892D01*
X331695Y76886D01*
X331692Y76882D01*
X331684Y76865D01*
X331618Y76745D01*
X331064Y75406D01*
X329349Y73691D01*
X327108Y72763D01*
X317572Y72763D01*
X315331Y73691D01*
X313616Y75406D01*
X313395Y75942D01*
X313345Y76022D01*
X313303Y76104D01*
X313281Y76125D01*
X313265Y76151D01*
X313193Y76211D01*
X313126Y76276D01*
X313099Y76289D01*
X313075Y76308D01*
X312988Y76342D01*
X312904Y76382D01*
X312874Y76385D01*
X312846Y76396D01*
X312753Y76400D01*
X312660Y76411D01*
X312622Y76406D01*
X312600Y76407D01*
X312569Y76398D01*
X312494Y76386D01*
X312245Y76319D01*
X308863Y76319D01*
X308863Y88098D01*
X308860Y88118D01*
X308862Y88137D01*
X308840Y88239D01*
X308823Y88341D01*
X308814Y88358D01*
X308810Y88378D01*
X308757Y88467D01*
X308708Y88558D01*
X308694Y88572D01*
X308684Y88589D01*
X308605Y88656D01*
X308530Y88727D01*
X308512Y88736D01*
X308497Y88749D01*
X308401Y88788D01*
X308307Y88831D01*
X308287Y88833D01*
X308269Y88841D01*
X308102Y88859D01*
X306578Y88859D01*
X306558Y88856D01*
X306539Y88858D01*
X306437Y88836D01*
X306335Y88819D01*
X306318Y88810D01*
X306298Y88806D01*
X306209Y88753D01*
X306118Y88704D01*
X306104Y88690D01*
X306087Y88680D01*
X306020Y88601D01*
X305949Y88526D01*
X305940Y88508D01*
X305927Y88493D01*
X305888Y88397D01*
X305845Y88303D01*
X305843Y88283D01*
X305835Y88265D01*
X305817Y88098D01*
X305817Y76319D01*
X302435Y76319D01*
X302186Y76386D01*
X302093Y76395D01*
X302001Y76412D01*
X301971Y76408D01*
X301941Y76411D01*
X301850Y76390D01*
X301758Y76376D01*
X301731Y76363D01*
X301701Y76356D01*
X301622Y76307D01*
X301539Y76265D01*
X301517Y76243D01*
X301492Y76227D01*
X301432Y76156D01*
X301366Y76089D01*
X301348Y76056D01*
X301334Y76039D01*
X301322Y76008D01*
X301285Y75942D01*
X301064Y75406D01*
X299349Y73691D01*
X297108Y72763D01*
X287572Y72763D01*
X285331Y73691D01*
X283616Y75406D01*
X283062Y76745D01*
X283000Y76845D01*
X282940Y76945D01*
X282936Y76949D01*
X282932Y76954D01*
X282842Y77029D01*
X282753Y77105D01*
X282748Y77107D01*
X282743Y77111D01*
X282634Y77153D01*
X282525Y77197D01*
X282518Y77198D01*
X282513Y77199D01*
X282495Y77200D01*
X282359Y77215D01*
X269232Y77215D01*
X269168Y77205D01*
X269102Y77204D01*
X269022Y77181D01*
X268990Y77176D01*
X268973Y77166D01*
X268941Y77157D01*
X268581Y77008D01*
X268481Y76946D01*
X268381Y76886D01*
X268377Y76882D01*
X268372Y76878D01*
X268297Y76789D01*
X268221Y76700D01*
X268219Y76694D01*
X268215Y76689D01*
X268173Y76581D01*
X268129Y76471D01*
X268128Y76464D01*
X268127Y76459D01*
X268126Y76441D01*
X268111Y76305D01*
X268111Y75183D01*
X259332Y75183D01*
X259312Y75180D01*
X259293Y75182D01*
X259191Y75160D01*
X259089Y75143D01*
X259072Y75134D01*
X259052Y75130D01*
X258963Y75077D01*
X258872Y75028D01*
X258858Y75014D01*
X258841Y75004D01*
X258774Y74925D01*
X258703Y74850D01*
X258694Y74832D01*
X258681Y74817D01*
X258642Y74721D01*
X258599Y74627D01*
X258597Y74607D01*
X258589Y74589D01*
X258571Y74422D01*
X258571Y73659D01*
X258569Y73659D01*
X258569Y74422D01*
X258566Y74442D01*
X258568Y74461D01*
X258546Y74563D01*
X258529Y74665D01*
X258520Y74682D01*
X258516Y74702D01*
X258463Y74791D01*
X258414Y74882D01*
X258400Y74896D01*
X258390Y74913D01*
X258311Y74980D01*
X258236Y75051D01*
X258218Y75060D01*
X258203Y75073D01*
X258107Y75112D01*
X258013Y75155D01*
X257993Y75157D01*
X257975Y75165D01*
X257808Y75183D01*
X249029Y75183D01*
X249029Y76305D01*
X249010Y76419D01*
X248993Y76536D01*
X248991Y76541D01*
X248990Y76547D01*
X248935Y76650D01*
X248882Y76755D01*
X248877Y76759D01*
X248874Y76765D01*
X248790Y76845D01*
X248706Y76927D01*
X248700Y76931D01*
X248696Y76934D01*
X248679Y76942D01*
X248559Y77008D01*
X248116Y77191D01*
X246401Y78906D01*
X245473Y81147D01*
X245473Y91573D01*
X245519Y91684D01*
X245524Y91706D01*
X245535Y91725D01*
X245552Y91825D01*
X245576Y91924D01*
X245574Y91945D01*
X245577Y91967D01*
X245562Y92068D01*
X245553Y92168D01*
X245544Y92189D01*
X245540Y92210D01*
X245494Y92300D01*
X245453Y92393D01*
X245438Y92409D01*
X245428Y92429D01*
X245355Y92500D01*
X245286Y92574D01*
X245267Y92585D01*
X245251Y92600D01*
X245159Y92644D01*
X245071Y92693D01*
X245049Y92697D01*
X245029Y92706D01*
X244928Y92719D01*
X244829Y92737D01*
X244807Y92733D01*
X244785Y92736D01*
X244619Y92711D01*
X243904Y92519D01*
X240414Y92519D01*
X240368Y92512D01*
X240322Y92514D01*
X240248Y92492D01*
X240171Y92480D01*
X240130Y92458D01*
X240086Y92445D01*
X240022Y92401D01*
X239954Y92364D01*
X239922Y92331D01*
X239884Y92305D01*
X239838Y92242D01*
X239784Y92186D01*
X239765Y92144D01*
X239737Y92107D01*
X239713Y92033D01*
X239681Y91963D01*
X239676Y91917D01*
X239661Y91873D01*
X239662Y91795D01*
X239654Y91719D01*
X239664Y91673D01*
X239664Y91627D01*
X239667Y91618D01*
X239667Y81147D01*
X238739Y78906D01*
X237024Y77191D01*
X236581Y77008D01*
X236481Y76946D01*
X236381Y76886D01*
X236377Y76882D01*
X236372Y76878D01*
X236297Y76788D01*
X236221Y76700D01*
X236219Y76694D01*
X236215Y76689D01*
X236173Y76581D01*
X236129Y76471D01*
X236128Y76464D01*
X236127Y76459D01*
X236126Y76441D01*
X236111Y76305D01*
X236111Y75183D01*
X227332Y75183D01*
X227312Y75180D01*
X227293Y75182D01*
X227191Y75160D01*
X227089Y75143D01*
X227072Y75134D01*
X227052Y75130D01*
X226963Y75077D01*
X226872Y75028D01*
X226858Y75014D01*
X226841Y75004D01*
X226774Y74925D01*
X226703Y74850D01*
X226694Y74832D01*
X226681Y74817D01*
X226642Y74721D01*
X226599Y74627D01*
X226597Y74607D01*
X226589Y74589D01*
X226571Y74422D01*
X226571Y73659D01*
X226569Y73659D01*
X226569Y74422D01*
X226566Y74442D01*
X226568Y74461D01*
X226546Y74563D01*
X226529Y74665D01*
X226520Y74682D01*
X226516Y74702D01*
X226463Y74791D01*
X226414Y74882D01*
X226400Y74896D01*
X226390Y74913D01*
X226311Y74980D01*
X226236Y75051D01*
X226218Y75060D01*
X226203Y75073D01*
X226107Y75112D01*
X226013Y75155D01*
X225993Y75157D01*
X225975Y75165D01*
X225808Y75183D01*
X217029Y75183D01*
X217029Y76305D01*
X217010Y76419D01*
X216993Y76536D01*
X216991Y76541D01*
X216990Y76547D01*
X216935Y76650D01*
X216882Y76755D01*
X216877Y76759D01*
X216874Y76765D01*
X216790Y76845D01*
X216706Y76927D01*
X216700Y76931D01*
X216696Y76934D01*
X216679Y76942D01*
X216559Y77008D01*
X216116Y77191D01*
X215808Y77500D01*
X215734Y77553D01*
X215664Y77613D01*
X215634Y77625D01*
X215608Y77644D01*
X215521Y77671D01*
X215436Y77705D01*
X215395Y77709D01*
X215373Y77716D01*
X215341Y77715D01*
X215269Y77723D01*
X214079Y77723D01*
X203825Y81055D01*
X195102Y87392D01*
X188765Y96115D01*
X185433Y106369D01*
X185433Y158865D01*
X185423Y158930D01*
X185422Y158996D01*
X185399Y159076D01*
X185394Y159108D01*
X185384Y159125D01*
X185375Y159157D01*
X185125Y159762D01*
X185075Y159842D01*
X185033Y159924D01*
X185011Y159946D01*
X184995Y159971D01*
X184923Y160031D01*
X184856Y160096D01*
X184829Y160109D01*
X184805Y160128D01*
X184718Y160161D01*
X184634Y160202D01*
X184604Y160205D01*
X184576Y160216D01*
X184483Y160220D01*
X184390Y160231D01*
X184352Y160226D01*
X184330Y160227D01*
X184299Y160218D01*
X184224Y160206D01*
X183975Y160139D01*
X180593Y160139D01*
X180593Y171918D01*
X180590Y171938D01*
X180592Y171957D01*
X180570Y172059D01*
X180553Y172161D01*
X180544Y172178D01*
X180540Y172198D01*
X180487Y172287D01*
X180438Y172378D01*
X180424Y172392D01*
X180414Y172409D01*
X180335Y172476D01*
X180260Y172547D01*
X180242Y172556D01*
X180227Y172569D01*
X180131Y172608D01*
X180037Y172651D01*
X180017Y172653D01*
X179999Y172661D01*
X179832Y172679D01*
X178308Y172679D01*
X178288Y172676D01*
X178269Y172678D01*
X178167Y172656D01*
X178065Y172639D01*
X178048Y172630D01*
X178028Y172626D01*
X177939Y172573D01*
X177848Y172524D01*
X177834Y172510D01*
X177817Y172500D01*
X177750Y172421D01*
X177679Y172346D01*
X177670Y172328D01*
X177657Y172313D01*
X177618Y172217D01*
X177575Y172123D01*
X177573Y172103D01*
X177565Y172085D01*
X177547Y171918D01*
X177547Y160139D01*
X174165Y160139D01*
X173916Y160206D01*
X173823Y160215D01*
X173731Y160232D01*
X173701Y160228D01*
X173671Y160231D01*
X173580Y160210D01*
X173488Y160196D01*
X173461Y160183D01*
X173431Y160176D01*
X173352Y160127D01*
X173269Y160085D01*
X173247Y160063D01*
X173222Y160047D01*
X173162Y159976D01*
X173096Y159909D01*
X173078Y159876D01*
X173064Y159859D01*
X173052Y159828D01*
X173015Y159762D01*
X172765Y159157D01*
X172750Y159093D01*
X172725Y159032D01*
X172716Y158949D01*
X172709Y158917D01*
X172710Y158898D01*
X172707Y158865D01*
X172707Y154081D01*
X172721Y153991D01*
X172729Y153900D01*
X172741Y153870D01*
X172746Y153838D01*
X172789Y153757D01*
X172825Y153673D01*
X172851Y153641D01*
X172862Y153621D01*
X172885Y153598D01*
X172930Y153542D01*
X174399Y152074D01*
X175327Y149833D01*
X175327Y136907D01*
X174500Y134911D01*
X174479Y134823D01*
X174451Y134736D01*
X174451Y134703D01*
X174444Y134672D01*
X174452Y134581D01*
X174453Y134490D01*
X174465Y134450D01*
X174467Y134427D01*
X174480Y134398D01*
X174500Y134329D01*
X175327Y132333D01*
X175327Y119407D01*
X174399Y117166D01*
X174150Y116918D01*
X174097Y116844D01*
X174037Y116774D01*
X174025Y116744D01*
X174006Y116718D01*
X173979Y116631D01*
X173945Y116546D01*
X173941Y116505D01*
X173934Y116483D01*
X173935Y116451D01*
X173927Y116379D01*
X173927Y105617D01*
X172999Y103376D01*
X171284Y101661D01*
X169043Y100733D01*
X158617Y100733D01*
X156376Y101661D01*
X154661Y103376D01*
X153733Y105617D01*
X153733Y116379D01*
X153719Y116469D01*
X153711Y116560D01*
X153699Y116590D01*
X153694Y116622D01*
X153651Y116703D01*
X153615Y116787D01*
X153589Y116819D01*
X153578Y116839D01*
X153555Y116862D01*
X153510Y116918D01*
X153418Y117010D01*
X153344Y117063D01*
X153274Y117123D01*
X153244Y117135D01*
X153218Y117154D01*
X153131Y117181D01*
X153046Y117215D01*
X153005Y117219D01*
X152983Y117226D01*
X152951Y117225D01*
X152879Y117233D01*
X151812Y117233D01*
X148638Y118548D01*
X139575Y127610D01*
X139502Y127663D01*
X139432Y127723D01*
X139402Y127735D01*
X139376Y127754D01*
X139289Y127781D01*
X139204Y127815D01*
X139163Y127819D01*
X139141Y127826D01*
X139108Y127825D01*
X139037Y127833D01*
X109676Y127833D01*
X109611Y127823D01*
X109546Y127822D01*
X109466Y127799D01*
X109433Y127794D01*
X109416Y127784D01*
X109385Y127775D01*
X108844Y127551D01*
X104516Y127551D01*
X103975Y127775D01*
X103911Y127790D01*
X103851Y127815D01*
X103768Y127824D01*
X103736Y127831D01*
X103716Y127830D01*
X103684Y127833D01*
X97282Y127833D01*
X97262Y127830D01*
X97243Y127832D01*
X97141Y127810D01*
X97039Y127794D01*
X97022Y127784D01*
X97002Y127780D01*
X96913Y127727D01*
X96822Y127678D01*
X96808Y127664D01*
X96791Y127654D01*
X96724Y127575D01*
X96652Y127500D01*
X96644Y127482D01*
X96631Y127467D01*
X96592Y127371D01*
X96549Y127277D01*
X96547Y127257D01*
X96539Y127239D01*
X96521Y127072D01*
X96521Y120232D01*
X96524Y120212D01*
X96522Y120193D01*
X96544Y120091D01*
X96560Y119989D01*
X96570Y119972D01*
X96574Y119952D01*
X96627Y119863D01*
X96676Y119772D01*
X96690Y119758D01*
X96700Y119741D01*
X96779Y119674D01*
X96854Y119602D01*
X96872Y119594D01*
X96887Y119581D01*
X96983Y119542D01*
X97077Y119499D01*
X97097Y119497D01*
X97115Y119489D01*
X97282Y119471D01*
X116587Y119471D01*
X116587Y112203D01*
X97282Y112203D01*
X97262Y112200D01*
X97243Y112202D01*
X97141Y112180D01*
X97039Y112163D01*
X97022Y112154D01*
X97002Y112150D01*
X96913Y112097D01*
X96822Y112048D01*
X96808Y112034D01*
X96791Y112024D01*
X96724Y111945D01*
X96652Y111870D01*
X96644Y111852D01*
X96631Y111837D01*
X96592Y111741D01*
X96549Y111647D01*
X96547Y111627D01*
X96539Y111609D01*
X96521Y111442D01*
X96521Y109918D01*
X96524Y109898D01*
X96522Y109879D01*
X96544Y109777D01*
X96560Y109675D01*
X96570Y109658D01*
X96574Y109638D01*
X96627Y109549D01*
X96676Y109458D01*
X96690Y109444D01*
X96700Y109427D01*
X96779Y109360D01*
X96854Y109289D01*
X96872Y109280D01*
X96887Y109267D01*
X96983Y109228D01*
X97077Y109185D01*
X97097Y109183D01*
X97115Y109175D01*
X97282Y109157D01*
X116587Y109157D01*
X116587Y101889D01*
X97282Y101889D01*
X97262Y101886D01*
X97243Y101888D01*
X97141Y101866D01*
X97039Y101850D01*
X97022Y101840D01*
X97002Y101836D01*
X96913Y101783D01*
X96822Y101734D01*
X96808Y101720D01*
X96791Y101710D01*
X96724Y101631D01*
X96652Y101556D01*
X96644Y101538D01*
X96631Y101523D01*
X96592Y101427D01*
X96549Y101333D01*
X96547Y101313D01*
X96539Y101295D01*
X96521Y101128D01*
X96521Y54102D01*
X96524Y54082D01*
X96522Y54063D01*
X96544Y53961D01*
X96560Y53859D01*
X96570Y53842D01*
X96574Y53822D01*
X96627Y53733D01*
X96676Y53642D01*
X96690Y53628D01*
X96700Y53611D01*
X96779Y53544D01*
X96854Y53472D01*
X96872Y53464D01*
X96887Y53451D01*
X96983Y53412D01*
X97077Y53369D01*
X97097Y53367D01*
X97115Y53359D01*
X97282Y53341D01*
X566928Y53341D01*
X566948Y53344D01*
G37*
G36*
X308122Y88864D02*
X308122Y88864D01*
X308141Y88862D01*
X308243Y88884D01*
X308345Y88901D01*
X308362Y88910D01*
X308382Y88914D01*
X308471Y88967D01*
X308562Y89016D01*
X308576Y89030D01*
X308593Y89040D01*
X308660Y89119D01*
X308731Y89194D01*
X308740Y89212D01*
X308753Y89227D01*
X308792Y89323D01*
X308835Y89417D01*
X308837Y89437D01*
X308845Y89455D01*
X308863Y89622D01*
X308863Y114007D01*
X319406Y114007D01*
X319406Y100718D01*
X319409Y100698D01*
X319407Y100679D01*
X319429Y100577D01*
X319445Y100475D01*
X319455Y100458D01*
X319459Y100438D01*
X319512Y100349D01*
X319561Y100258D01*
X319575Y100244D01*
X319585Y100227D01*
X319664Y100160D01*
X319739Y100088D01*
X319757Y100080D01*
X319772Y100067D01*
X319868Y100028D01*
X319962Y99985D01*
X319982Y99983D01*
X320000Y99975D01*
X320167Y99957D01*
X327108Y99957D01*
X329349Y99029D01*
X331064Y97314D01*
X331618Y95975D01*
X331680Y95875D01*
X331740Y95775D01*
X331744Y95771D01*
X331748Y95766D01*
X331838Y95691D01*
X331927Y95615D01*
X331932Y95613D01*
X331937Y95609D01*
X332046Y95567D01*
X332155Y95523D01*
X332162Y95522D01*
X332167Y95521D01*
X332185Y95520D01*
X332321Y95505D01*
X367317Y95505D01*
X367407Y95519D01*
X367499Y95527D01*
X367528Y95539D01*
X367560Y95544D01*
X367641Y95587D01*
X367725Y95623D01*
X367757Y95649D01*
X367777Y95660D01*
X367798Y95681D01*
X368126Y95817D01*
X368187Y95854D01*
X368252Y95884D01*
X368291Y95919D01*
X368335Y95946D01*
X368381Y96002D01*
X368433Y96050D01*
X368459Y96096D01*
X368492Y96136D01*
X368517Y96203D01*
X368552Y96266D01*
X368561Y96317D01*
X368580Y96365D01*
X368583Y96437D01*
X368596Y96508D01*
X368588Y96559D01*
X368590Y96611D01*
X368570Y96680D01*
X368560Y96751D01*
X368536Y96797D01*
X368522Y96847D01*
X368481Y96906D01*
X368448Y96970D01*
X368411Y97007D01*
X368382Y97049D01*
X368324Y97092D01*
X368273Y97142D01*
X368210Y97177D01*
X368184Y97196D01*
X368162Y97203D01*
X368126Y97223D01*
X367816Y97351D01*
X366101Y99066D01*
X365173Y101307D01*
X365173Y117477D01*
X365170Y117497D01*
X365172Y117516D01*
X365150Y117618D01*
X365134Y117720D01*
X365124Y117737D01*
X365120Y117757D01*
X365067Y117846D01*
X365018Y117937D01*
X365004Y117951D01*
X364994Y117968D01*
X364915Y118035D01*
X364840Y118107D01*
X364822Y118115D01*
X364807Y118128D01*
X364711Y118167D01*
X364617Y118210D01*
X364597Y118212D01*
X364579Y118220D01*
X364412Y118238D01*
X346137Y118238D01*
X343896Y119166D01*
X342181Y120881D01*
X341253Y123122D01*
X341253Y143578D01*
X342181Y145819D01*
X343896Y147534D01*
X344719Y147874D01*
X344819Y147936D01*
X344919Y147996D01*
X344923Y148001D01*
X344928Y148004D01*
X345003Y148094D01*
X345079Y148183D01*
X345081Y148189D01*
X345085Y148193D01*
X345127Y148302D01*
X345171Y148411D01*
X345172Y148419D01*
X345173Y148423D01*
X345174Y148441D01*
X345189Y148578D01*
X345189Y158919D01*
X345178Y158990D01*
X345176Y159062D01*
X345158Y159111D01*
X345150Y159162D01*
X345116Y159225D01*
X345091Y159293D01*
X345059Y159333D01*
X345034Y159380D01*
X344982Y159429D01*
X344938Y159485D01*
X344894Y159513D01*
X344856Y159549D01*
X344791Y159579D01*
X344731Y159618D01*
X344680Y159631D01*
X344633Y159653D01*
X344562Y159660D01*
X344492Y159678D01*
X344440Y159674D01*
X344389Y159680D01*
X344318Y159664D01*
X344247Y159659D01*
X344199Y159638D01*
X344148Y159627D01*
X344087Y159591D01*
X344021Y159562D01*
X343965Y159518D01*
X343937Y159501D01*
X343922Y159483D01*
X343890Y159458D01*
X342874Y158441D01*
X340633Y157513D01*
X316112Y157513D01*
X316095Y157517D01*
X316049Y157513D01*
X316003Y157518D01*
X315927Y157502D01*
X315850Y157495D01*
X315808Y157476D01*
X315762Y157466D01*
X315696Y157426D01*
X315626Y157395D01*
X315591Y157364D01*
X315551Y157340D01*
X315501Y157281D01*
X315444Y157229D01*
X315422Y157188D01*
X315391Y157153D01*
X315362Y157081D01*
X315325Y157014D01*
X315317Y156968D01*
X315299Y156925D01*
X315284Y156791D01*
X315281Y156772D01*
X315282Y156766D01*
X315281Y156758D01*
X315281Y156603D01*
X308102Y156603D01*
X308082Y156600D01*
X308063Y156602D01*
X307961Y156580D01*
X307859Y156563D01*
X307842Y156554D01*
X307822Y156550D01*
X307733Y156497D01*
X307642Y156448D01*
X307628Y156434D01*
X307611Y156424D01*
X307544Y156345D01*
X307473Y156270D01*
X307464Y156252D01*
X307451Y156237D01*
X307412Y156141D01*
X307369Y156047D01*
X307367Y156027D01*
X307359Y156009D01*
X307341Y155842D01*
X307341Y155079D01*
X307339Y155079D01*
X307339Y155842D01*
X307336Y155862D01*
X307338Y155881D01*
X307316Y155983D01*
X307299Y156085D01*
X307290Y156102D01*
X307286Y156122D01*
X307233Y156211D01*
X307184Y156302D01*
X307170Y156316D01*
X307160Y156333D01*
X307081Y156400D01*
X307006Y156471D01*
X306988Y156480D01*
X306973Y156493D01*
X306877Y156532D01*
X306783Y156575D01*
X306763Y156577D01*
X306745Y156585D01*
X306578Y156603D01*
X299399Y156603D01*
X299399Y156972D01*
X299396Y156992D01*
X299398Y157011D01*
X299376Y157113D01*
X299360Y157215D01*
X299350Y157232D01*
X299346Y157252D01*
X299293Y157341D01*
X299244Y157432D01*
X299230Y157446D01*
X299220Y157463D01*
X299141Y157530D01*
X299066Y157601D01*
X299048Y157610D01*
X299033Y157623D01*
X298937Y157662D01*
X298843Y157705D01*
X298823Y157707D01*
X298805Y157715D01*
X298638Y157733D01*
X292213Y157733D01*
X292213Y164151D01*
X295519Y164151D01*
X295564Y164158D01*
X295610Y164156D01*
X295685Y164178D01*
X295761Y164190D01*
X295802Y164212D01*
X295846Y164225D01*
X295910Y164269D01*
X295979Y164306D01*
X296010Y164339D01*
X296048Y164365D01*
X296095Y164428D01*
X296148Y164484D01*
X296167Y164526D01*
X296195Y164562D01*
X296219Y164636D01*
X296252Y164707D01*
X296257Y164753D01*
X296271Y164796D01*
X296270Y164874D01*
X296279Y164951D01*
X296269Y164996D01*
X296269Y165042D01*
X296231Y165173D01*
X296227Y165192D01*
X296224Y165196D01*
X296222Y165203D01*
X295843Y166117D01*
X295843Y167416D01*
X295836Y167461D01*
X295838Y167507D01*
X295816Y167582D01*
X295804Y167659D01*
X295782Y167699D01*
X295769Y167744D01*
X295725Y167808D01*
X295688Y167876D01*
X295655Y167908D01*
X295629Y167946D01*
X295566Y167992D01*
X295510Y168046D01*
X295468Y168065D01*
X295432Y168092D01*
X295358Y168117D01*
X295287Y168149D01*
X295241Y168154D01*
X295198Y168169D01*
X295120Y168168D01*
X295043Y168176D01*
X294998Y168167D01*
X294952Y168166D01*
X294820Y168128D01*
X294802Y168124D01*
X294798Y168122D01*
X294791Y168120D01*
X293943Y167768D01*
X282742Y167768D01*
X282671Y167757D01*
X282599Y167755D01*
X282550Y167737D01*
X282499Y167729D01*
X282436Y167695D01*
X282368Y167670D01*
X282328Y167638D01*
X282281Y167613D01*
X282232Y167561D01*
X282176Y167517D01*
X282148Y167473D01*
X282112Y167435D01*
X282082Y167370D01*
X282043Y167310D01*
X282030Y167259D01*
X282008Y167212D01*
X282001Y167141D01*
X281983Y167071D01*
X281987Y167019D01*
X281981Y166968D01*
X281997Y166897D01*
X282002Y166826D01*
X282023Y166778D01*
X282034Y166727D01*
X282070Y166666D01*
X282099Y166600D01*
X282143Y166544D01*
X282160Y166516D01*
X282178Y166501D01*
X282203Y166469D01*
X283609Y165064D01*
X283843Y164498D01*
X283892Y164418D01*
X283935Y164335D01*
X283957Y164314D01*
X283973Y164289D01*
X284044Y164229D01*
X284111Y164164D01*
X284139Y164151D01*
X284162Y164132D01*
X284249Y164098D01*
X284333Y164058D01*
X284363Y164054D01*
X284392Y164044D01*
X284485Y164040D01*
X284578Y164028D01*
X284615Y164034D01*
X284637Y164033D01*
X284669Y164042D01*
X284743Y164054D01*
X285105Y164151D01*
X289167Y164151D01*
X289167Y156972D01*
X289170Y156952D01*
X289168Y156933D01*
X289190Y156831D01*
X289207Y156729D01*
X289216Y156712D01*
X289220Y156692D01*
X289273Y156603D01*
X289322Y156512D01*
X289336Y156498D01*
X289346Y156481D01*
X289425Y156414D01*
X289500Y156343D01*
X289518Y156334D01*
X289533Y156321D01*
X289629Y156282D01*
X289723Y156239D01*
X289743Y156237D01*
X289761Y156229D01*
X289928Y156211D01*
X290691Y156211D01*
X290691Y156209D01*
X289928Y156209D01*
X289908Y156206D01*
X289889Y156208D01*
X289787Y156186D01*
X289685Y156169D01*
X289668Y156160D01*
X289648Y156156D01*
X289559Y156103D01*
X289468Y156054D01*
X289454Y156040D01*
X289437Y156030D01*
X289370Y155951D01*
X289299Y155876D01*
X289290Y155858D01*
X289277Y155843D01*
X289238Y155747D01*
X289195Y155653D01*
X289193Y155633D01*
X289185Y155615D01*
X289167Y155448D01*
X289167Y148269D01*
X285105Y148269D01*
X284743Y148366D01*
X284651Y148376D01*
X284559Y148392D01*
X284529Y148388D01*
X284499Y148391D01*
X284408Y148370D01*
X284315Y148356D01*
X284288Y148343D01*
X284259Y148336D01*
X284179Y148287D01*
X284096Y148245D01*
X284075Y148223D01*
X284049Y148208D01*
X283989Y148136D01*
X283924Y148069D01*
X283905Y148036D01*
X283891Y148019D01*
X283879Y147988D01*
X283843Y147922D01*
X283609Y147356D01*
X281894Y145641D01*
X279653Y144713D01*
X267618Y144713D01*
X267598Y144710D01*
X267579Y144712D01*
X267477Y144690D01*
X267375Y144674D01*
X267358Y144664D01*
X267338Y144660D01*
X267249Y144607D01*
X267158Y144558D01*
X267144Y144544D01*
X267127Y144534D01*
X267060Y144455D01*
X266988Y144380D01*
X266980Y144362D01*
X266967Y144347D01*
X266928Y144251D01*
X266885Y144157D01*
X266883Y144137D01*
X266875Y144119D01*
X266864Y144014D01*
X265929Y141756D01*
X264214Y140041D01*
X261973Y139113D01*
X243547Y139113D01*
X241306Y140041D01*
X239591Y141756D01*
X239463Y142066D01*
X239426Y142127D01*
X239396Y142192D01*
X239361Y142231D01*
X239334Y142275D01*
X239278Y142321D01*
X239230Y142373D01*
X239184Y142399D01*
X239144Y142432D01*
X239077Y142457D01*
X239014Y142492D01*
X238963Y142501D01*
X238915Y142520D01*
X238843Y142523D01*
X238772Y142536D01*
X238721Y142528D01*
X238669Y142530D01*
X238600Y142510D01*
X238529Y142500D01*
X238483Y142476D01*
X238433Y142462D01*
X238374Y142421D01*
X238310Y142388D01*
X238273Y142351D01*
X238231Y142322D01*
X238188Y142264D01*
X238138Y142213D01*
X238103Y142150D01*
X238084Y142124D01*
X238077Y142102D01*
X238057Y142066D01*
X237929Y141756D01*
X236214Y140041D01*
X233973Y139113D01*
X215547Y139113D01*
X213306Y140041D01*
X211591Y141756D01*
X210955Y143293D01*
X210893Y143393D01*
X210833Y143493D01*
X210829Y143497D01*
X210825Y143502D01*
X210736Y143577D01*
X210646Y143653D01*
X210641Y143655D01*
X210636Y143659D01*
X210528Y143701D01*
X210418Y143745D01*
X210411Y143746D01*
X210406Y143747D01*
X210388Y143748D01*
X210252Y143763D01*
X203468Y143763D01*
X203448Y143760D01*
X203429Y143762D01*
X203327Y143740D01*
X203225Y143724D01*
X203208Y143714D01*
X203188Y143710D01*
X203099Y143657D01*
X203008Y143608D01*
X202994Y143594D01*
X202977Y143584D01*
X202910Y143505D01*
X202838Y143430D01*
X202830Y143412D01*
X202817Y143397D01*
X202778Y143301D01*
X202735Y143207D01*
X202733Y143187D01*
X202725Y143169D01*
X202707Y143002D01*
X202707Y111760D01*
X202710Y111738D01*
X202709Y111700D01*
X202906Y109197D01*
X202907Y109191D01*
X202907Y109186D01*
X202941Y109021D01*
X204488Y104260D01*
X204505Y104228D01*
X204513Y104194D01*
X204596Y104048D01*
X207539Y99997D01*
X207564Y99972D01*
X207583Y99942D01*
X207707Y99829D01*
X211758Y96886D01*
X211790Y96870D01*
X211817Y96847D01*
X211970Y96778D01*
X215717Y95561D01*
X215778Y95551D01*
X215837Y95532D01*
X215899Y95533D01*
X215960Y95523D01*
X216021Y95534D01*
X216083Y95535D01*
X216170Y95560D01*
X216203Y95566D01*
X216217Y95574D01*
X216244Y95581D01*
X216559Y95712D01*
X216658Y95773D01*
X216759Y95834D01*
X216763Y95838D01*
X216768Y95842D01*
X216843Y95932D01*
X216919Y96020D01*
X216921Y96026D01*
X216925Y96031D01*
X216967Y96140D01*
X217011Y96249D01*
X217012Y96256D01*
X217013Y96261D01*
X217014Y96279D01*
X217029Y96415D01*
X217029Y97537D01*
X230808Y97537D01*
X230828Y97540D01*
X230847Y97538D01*
X230949Y97560D01*
X231051Y97577D01*
X231068Y97586D01*
X231088Y97590D01*
X231177Y97643D01*
X231268Y97692D01*
X231282Y97706D01*
X231299Y97716D01*
X231366Y97795D01*
X231437Y97870D01*
X231446Y97888D01*
X231459Y97903D01*
X231498Y97999D01*
X231541Y98093D01*
X231543Y98113D01*
X231551Y98131D01*
X231569Y98298D01*
X231569Y99061D01*
X231571Y99061D01*
X231571Y98298D01*
X231574Y98278D01*
X231572Y98259D01*
X231594Y98157D01*
X231611Y98055D01*
X231620Y98038D01*
X231624Y98018D01*
X231677Y97929D01*
X231726Y97838D01*
X231740Y97824D01*
X231750Y97807D01*
X231829Y97740D01*
X231904Y97669D01*
X231922Y97660D01*
X231937Y97647D01*
X232033Y97608D01*
X232127Y97565D01*
X232147Y97563D01*
X232165Y97555D01*
X232332Y97537D01*
X246111Y97537D01*
X246111Y95361D01*
X246122Y95290D01*
X246124Y95218D01*
X246142Y95169D01*
X246150Y95118D01*
X246184Y95055D01*
X246209Y94987D01*
X246241Y94946D01*
X246266Y94900D01*
X246317Y94851D01*
X246362Y94795D01*
X246406Y94767D01*
X246444Y94731D01*
X246509Y94701D01*
X246569Y94662D01*
X246620Y94649D01*
X246667Y94627D01*
X246738Y94620D01*
X246808Y94602D01*
X246860Y94606D01*
X246911Y94600D01*
X246982Y94616D01*
X247053Y94621D01*
X247101Y94642D01*
X247152Y94653D01*
X247213Y94689D01*
X247279Y94718D01*
X247335Y94762D01*
X247363Y94779D01*
X247378Y94797D01*
X247410Y94822D01*
X248116Y95529D01*
X248559Y95712D01*
X248659Y95774D01*
X248759Y95834D01*
X248763Y95838D01*
X248768Y95842D01*
X248843Y95932D01*
X248919Y96020D01*
X248921Y96026D01*
X248925Y96031D01*
X248967Y96140D01*
X249011Y96249D01*
X249012Y96256D01*
X249013Y96261D01*
X249014Y96279D01*
X249029Y96415D01*
X249029Y97537D01*
X257808Y97537D01*
X257828Y97540D01*
X257847Y97538D01*
X257949Y97560D01*
X258051Y97577D01*
X258068Y97586D01*
X258088Y97590D01*
X258177Y97643D01*
X258268Y97692D01*
X258282Y97706D01*
X258299Y97716D01*
X258366Y97795D01*
X258437Y97870D01*
X258446Y97888D01*
X258459Y97903D01*
X258498Y97999D01*
X258541Y98093D01*
X258543Y98113D01*
X258551Y98131D01*
X258569Y98298D01*
X258569Y99061D01*
X258571Y99061D01*
X258571Y98298D01*
X258574Y98278D01*
X258572Y98259D01*
X258594Y98157D01*
X258611Y98055D01*
X258620Y98038D01*
X258624Y98018D01*
X258677Y97929D01*
X258726Y97838D01*
X258740Y97824D01*
X258750Y97807D01*
X258829Y97740D01*
X258904Y97669D01*
X258922Y97660D01*
X258937Y97647D01*
X259033Y97608D01*
X259127Y97565D01*
X259147Y97563D01*
X259165Y97555D01*
X259332Y97537D01*
X268111Y97537D01*
X268111Y96415D01*
X268129Y96301D01*
X268147Y96184D01*
X268149Y96179D01*
X268150Y96173D01*
X268205Y96069D01*
X268258Y95965D01*
X268263Y95961D01*
X268266Y95955D01*
X268351Y95874D01*
X268434Y95793D01*
X268440Y95789D01*
X268444Y95786D01*
X268461Y95778D01*
X268581Y95712D01*
X268941Y95563D01*
X269005Y95548D01*
X269066Y95523D01*
X269149Y95514D01*
X269181Y95507D01*
X269200Y95508D01*
X269232Y95505D01*
X282359Y95505D01*
X282473Y95524D01*
X282590Y95541D01*
X282595Y95543D01*
X282601Y95544D01*
X282704Y95599D01*
X282809Y95652D01*
X282813Y95657D01*
X282819Y95660D01*
X282899Y95744D01*
X282981Y95828D01*
X282985Y95834D01*
X282988Y95838D01*
X282996Y95855D01*
X283062Y95975D01*
X283616Y97314D01*
X285331Y99029D01*
X287572Y99957D01*
X294513Y99957D01*
X294533Y99960D01*
X294552Y99958D01*
X294654Y99980D01*
X294756Y99996D01*
X294773Y100006D01*
X294793Y100010D01*
X294882Y100063D01*
X294973Y100112D01*
X294987Y100126D01*
X295004Y100136D01*
X295071Y100215D01*
X295143Y100290D01*
X295151Y100308D01*
X295164Y100323D01*
X295203Y100419D01*
X295246Y100513D01*
X295248Y100533D01*
X295256Y100551D01*
X295274Y100718D01*
X295274Y114007D01*
X305817Y114007D01*
X305817Y89622D01*
X305820Y89602D01*
X305818Y89583D01*
X305840Y89481D01*
X305857Y89379D01*
X305866Y89362D01*
X305870Y89342D01*
X305923Y89253D01*
X305972Y89162D01*
X305986Y89148D01*
X305996Y89131D01*
X306075Y89064D01*
X306150Y88993D01*
X306168Y88984D01*
X306183Y88971D01*
X306279Y88932D01*
X306373Y88889D01*
X306393Y88887D01*
X306411Y88879D01*
X306578Y88861D01*
X308102Y88861D01*
X308122Y88864D01*
G37*
%LPC*%
G36*
X487167Y154033D02*
X487167Y154033D01*
X484926Y154961D01*
X483211Y156676D01*
X482283Y158917D01*
X482283Y181343D01*
X483211Y183584D01*
X484926Y185299D01*
X487167Y186227D01*
X489181Y186227D01*
X489295Y186246D01*
X489412Y186263D01*
X489417Y186265D01*
X489423Y186266D01*
X489526Y186321D01*
X489631Y186374D01*
X489635Y186379D01*
X489641Y186382D01*
X489721Y186466D01*
X489803Y186550D01*
X489807Y186556D01*
X489810Y186560D01*
X489818Y186577D01*
X489884Y186697D01*
X490905Y189161D01*
X491430Y189687D01*
X491483Y189761D01*
X491543Y189830D01*
X491555Y189860D01*
X491574Y189886D01*
X491601Y189973D01*
X491635Y190058D01*
X491639Y190099D01*
X491646Y190121D01*
X491645Y190154D01*
X491653Y190225D01*
X491653Y193993D01*
X493355Y198101D01*
X502860Y207607D01*
X502913Y207681D01*
X502973Y207750D01*
X502985Y207780D01*
X503004Y207806D01*
X503031Y207893D01*
X503065Y207978D01*
X503069Y208019D01*
X503076Y208041D01*
X503075Y208074D01*
X503083Y208145D01*
X503083Y213033D01*
X504011Y215274D01*
X505726Y216989D01*
X507967Y217917D01*
X523093Y217917D01*
X525334Y216989D01*
X527049Y215274D01*
X527977Y213033D01*
X527977Y195907D01*
X527049Y193666D01*
X525334Y191951D01*
X523093Y191023D01*
X518205Y191023D01*
X518115Y191009D01*
X518024Y191001D01*
X517994Y190989D01*
X517962Y190984D01*
X517881Y190941D01*
X517798Y190905D01*
X517765Y190879D01*
X517745Y190868D01*
X517723Y190845D01*
X517667Y190800D01*
X514230Y187363D01*
X514177Y187289D01*
X514117Y187220D01*
X514105Y187190D01*
X514086Y187164D01*
X514059Y187077D01*
X514025Y186992D01*
X514021Y186951D01*
X514014Y186929D01*
X514015Y186896D01*
X514007Y186825D01*
X514007Y186564D01*
X514026Y186449D01*
X514043Y186333D01*
X514045Y186327D01*
X514046Y186321D01*
X514101Y186219D01*
X514154Y186114D01*
X514159Y186109D01*
X514162Y186104D01*
X514195Y186072D01*
X514197Y186069D01*
X514215Y186053D01*
X514246Y186024D01*
X514330Y185941D01*
X514336Y185938D01*
X514340Y185934D01*
X514357Y185927D01*
X514374Y185917D01*
X514384Y185909D01*
X514405Y185900D01*
X514477Y185861D01*
X515834Y185299D01*
X517549Y183584D01*
X518477Y181343D01*
X518477Y158917D01*
X517549Y156676D01*
X515834Y154961D01*
X513593Y154033D01*
X487167Y154033D01*
G37*
%LPD*%
G36*
X424909Y95011D02*
X424909Y95011D01*
X425000Y95019D01*
X425030Y95031D01*
X425062Y95036D01*
X425143Y95079D01*
X425227Y95115D01*
X425259Y95141D01*
X425279Y95152D01*
X425302Y95175D01*
X425358Y95220D01*
X425666Y95529D01*
X426109Y95712D01*
X426209Y95774D01*
X426309Y95834D01*
X426313Y95838D01*
X426318Y95842D01*
X426393Y95932D01*
X426469Y96020D01*
X426471Y96026D01*
X426475Y96031D01*
X426517Y96140D01*
X426561Y96249D01*
X426562Y96256D01*
X426563Y96261D01*
X426564Y96279D01*
X426579Y96415D01*
X426579Y97537D01*
X440358Y97537D01*
X440378Y97540D01*
X440397Y97538D01*
X440499Y97560D01*
X440601Y97577D01*
X440618Y97586D01*
X440638Y97590D01*
X440727Y97643D01*
X440818Y97692D01*
X440832Y97706D01*
X440849Y97716D01*
X440916Y97795D01*
X440987Y97870D01*
X440996Y97888D01*
X441009Y97903D01*
X441048Y97999D01*
X441091Y98093D01*
X441093Y98113D01*
X441101Y98131D01*
X441119Y98298D01*
X441119Y99822D01*
X441116Y99842D01*
X441118Y99861D01*
X441096Y99963D01*
X441079Y100065D01*
X441070Y100082D01*
X441066Y100102D01*
X441013Y100191D01*
X440964Y100282D01*
X440950Y100296D01*
X440940Y100313D01*
X440861Y100380D01*
X440786Y100451D01*
X440768Y100460D01*
X440753Y100473D01*
X440657Y100512D01*
X440563Y100555D01*
X440543Y100557D01*
X440525Y100565D01*
X440358Y100583D01*
X426579Y100583D01*
X426579Y103394D01*
X426752Y104041D01*
X427092Y104630D01*
X427139Y104694D01*
X427201Y104769D01*
X427210Y104794D01*
X427226Y104815D01*
X427254Y104908D01*
X427289Y104999D01*
X427290Y105025D01*
X427298Y105050D01*
X427296Y105147D01*
X427300Y105245D01*
X427292Y105270D01*
X427292Y105296D01*
X427258Y105387D01*
X427231Y105481D01*
X427216Y105502D01*
X427207Y105527D01*
X427147Y105603D01*
X427091Y105683D01*
X427070Y105699D01*
X427054Y105719D01*
X426972Y105772D01*
X426894Y105830D01*
X426869Y105838D01*
X426847Y105852D01*
X426752Y105876D01*
X426660Y105906D01*
X426634Y105906D01*
X426608Y105912D01*
X426511Y105905D01*
X426414Y105904D01*
X426382Y105895D01*
X426363Y105893D01*
X426333Y105880D01*
X426253Y105857D01*
X425713Y105633D01*
X412487Y105633D01*
X411771Y105930D01*
X411682Y105951D01*
X411596Y105979D01*
X411563Y105979D01*
X411532Y105986D01*
X411441Y105977D01*
X411350Y105977D01*
X411310Y105965D01*
X411287Y105963D01*
X411258Y105950D01*
X411189Y105930D01*
X410473Y105633D01*
X400128Y105633D01*
X400108Y105630D01*
X400089Y105632D01*
X399987Y105610D01*
X399885Y105594D01*
X399868Y105584D01*
X399848Y105580D01*
X399759Y105527D01*
X399668Y105478D01*
X399654Y105464D01*
X399637Y105454D01*
X399570Y105375D01*
X399498Y105300D01*
X399490Y105282D01*
X399477Y105267D01*
X399438Y105171D01*
X399395Y105077D01*
X399393Y105057D01*
X399385Y105039D01*
X399367Y104872D01*
X399367Y101307D01*
X398439Y99066D01*
X396724Y97351D01*
X396414Y97223D01*
X396353Y97185D01*
X396288Y97156D01*
X396249Y97121D01*
X396205Y97094D01*
X396159Y97038D01*
X396107Y96990D01*
X396081Y96944D01*
X396048Y96904D01*
X396023Y96837D01*
X395988Y96774D01*
X395979Y96723D01*
X395960Y96675D01*
X395957Y96603D01*
X395944Y96532D01*
X395952Y96481D01*
X395950Y96429D01*
X395970Y96360D01*
X395980Y96289D01*
X396004Y96243D01*
X396018Y96193D01*
X396059Y96134D01*
X396092Y96070D01*
X396129Y96033D01*
X396158Y95991D01*
X396216Y95948D01*
X396267Y95898D01*
X396330Y95863D01*
X396356Y95844D01*
X396378Y95837D01*
X396414Y95817D01*
X396723Y95689D01*
X397192Y95220D01*
X397266Y95166D01*
X397336Y95107D01*
X397366Y95095D01*
X397392Y95076D01*
X397479Y95049D01*
X397564Y95015D01*
X397605Y95011D01*
X397627Y95004D01*
X397659Y95005D01*
X397731Y94997D01*
X424819Y94997D01*
X424909Y95011D01*
G37*
%LPC*%
G36*
X180593Y200873D02*
X180593Y200873D01*
X180593Y218561D01*
X188929Y218561D01*
X189576Y218388D01*
X190155Y218053D01*
X190628Y217580D01*
X190963Y217001D01*
X191136Y216354D01*
X191136Y200873D01*
X180593Y200873D01*
G37*
%LPD*%
%LPC*%
G36*
X308863Y117053D02*
X308863Y117053D01*
X308863Y134741D01*
X317199Y134741D01*
X317846Y134568D01*
X318425Y134233D01*
X318898Y133760D01*
X319233Y133181D01*
X319406Y132534D01*
X319406Y117053D01*
X308863Y117053D01*
G37*
%LPD*%
%LPC*%
G36*
X167004Y200873D02*
X167004Y200873D01*
X167004Y216354D01*
X167177Y217001D01*
X167512Y217580D01*
X167985Y218053D01*
X168564Y218388D01*
X169211Y218561D01*
X177547Y218561D01*
X177547Y200873D01*
X167004Y200873D01*
G37*
%LPD*%
%LPC*%
G36*
X295274Y117053D02*
X295274Y117053D01*
X295274Y132534D01*
X295447Y133181D01*
X295782Y133760D01*
X296255Y134233D01*
X296834Y134568D01*
X297481Y134741D01*
X305817Y134741D01*
X305817Y117053D01*
X295274Y117053D01*
G37*
%LPD*%
%LPC*%
G36*
X119633Y167703D02*
X119633Y167703D01*
X119633Y174971D01*
X138944Y174971D01*
X139591Y174798D01*
X140170Y174463D01*
X140643Y173990D01*
X140978Y173411D01*
X141151Y172764D01*
X141151Y167703D01*
X119633Y167703D01*
G37*
%LPD*%
%LPC*%
G36*
X119633Y112203D02*
X119633Y112203D01*
X119633Y119471D01*
X138944Y119471D01*
X139591Y119298D01*
X140170Y118963D01*
X140643Y118490D01*
X140978Y117911D01*
X141151Y117264D01*
X141151Y112203D01*
X119633Y112203D01*
G37*
%LPD*%
%LPC*%
G36*
X524329Y167703D02*
X524329Y167703D01*
X524329Y172764D01*
X524502Y173411D01*
X524837Y173990D01*
X525310Y174463D01*
X525889Y174798D01*
X526536Y174971D01*
X545847Y174971D01*
X545847Y167703D01*
X524329Y167703D01*
G37*
%LPD*%
%LPC*%
G36*
X524329Y112203D02*
X524329Y112203D01*
X524329Y117264D01*
X524502Y117911D01*
X524837Y118490D01*
X525310Y118963D01*
X525889Y119298D01*
X526536Y119471D01*
X545847Y119471D01*
X545847Y112203D01*
X524329Y112203D01*
G37*
%LPD*%
%LPC*%
G36*
X119633Y101889D02*
X119633Y101889D01*
X119633Y109157D01*
X141151Y109157D01*
X141151Y104096D01*
X140978Y103449D01*
X140643Y102870D01*
X140170Y102397D01*
X139591Y102062D01*
X138944Y101889D01*
X119633Y101889D01*
G37*
%LPD*%
%LPC*%
G36*
X119633Y157389D02*
X119633Y157389D01*
X119633Y164657D01*
X141151Y164657D01*
X141151Y159596D01*
X140978Y158949D01*
X140643Y158370D01*
X140170Y157897D01*
X139591Y157562D01*
X138944Y157389D01*
X119633Y157389D01*
G37*
%LPD*%
%LPC*%
G36*
X526536Y101889D02*
X526536Y101889D01*
X525889Y102062D01*
X525310Y102397D01*
X524837Y102870D01*
X524502Y103449D01*
X524329Y104096D01*
X524329Y109157D01*
X545847Y109157D01*
X545847Y101889D01*
X526536Y101889D01*
G37*
%LPD*%
%LPC*%
G36*
X526536Y157389D02*
X526536Y157389D01*
X525889Y157562D01*
X525310Y157897D01*
X524837Y158370D01*
X524502Y158949D01*
X524329Y159596D01*
X524329Y164657D01*
X545847Y164657D01*
X545847Y157389D01*
X526536Y157389D01*
G37*
%LPD*%
%LPC*%
G36*
X425703Y174977D02*
X425703Y174977D01*
X435721Y174977D01*
X435721Y168166D01*
X435548Y167519D01*
X435213Y166940D01*
X434740Y166467D01*
X434161Y166132D01*
X433514Y165959D01*
X425703Y165959D01*
X425703Y174977D01*
G37*
%LPD*%
%LPC*%
G36*
X412639Y178023D02*
X412639Y178023D01*
X412639Y184834D01*
X412812Y185481D01*
X413147Y186060D01*
X413620Y186533D01*
X414199Y186868D01*
X414846Y187041D01*
X422657Y187041D01*
X422657Y178023D01*
X412639Y178023D01*
G37*
%LPD*%
%LPC*%
G36*
X414846Y165959D02*
X414846Y165959D01*
X414199Y166132D01*
X413620Y166467D01*
X413147Y166940D01*
X412812Y167519D01*
X412639Y168166D01*
X412639Y174977D01*
X422657Y174977D01*
X422657Y165959D01*
X414846Y165959D01*
G37*
%LPD*%
%LPC*%
G36*
X391921Y160019D02*
X391921Y160019D01*
X391921Y167133D01*
X401908Y167133D01*
X402555Y166960D01*
X403134Y166625D01*
X403607Y166152D01*
X403942Y165573D01*
X404115Y164926D01*
X404115Y160019D01*
X391921Y160019D01*
G37*
%LPD*%
%LPC*%
G36*
X376681Y160019D02*
X376681Y160019D01*
X376681Y164926D01*
X376854Y165573D01*
X377189Y166152D01*
X377662Y166625D01*
X378241Y166960D01*
X378888Y167133D01*
X388875Y167133D01*
X388875Y160019D01*
X376681Y160019D01*
G37*
%LPD*%
%LPC*%
G36*
X301606Y147289D02*
X301606Y147289D01*
X300959Y147462D01*
X300380Y147797D01*
X299907Y148270D01*
X299572Y148849D01*
X299468Y149240D01*
X299438Y149305D01*
X299418Y149374D01*
X299388Y149416D01*
X299367Y149464D01*
X299318Y149517D01*
X299277Y149575D01*
X299235Y149606D01*
X299199Y149644D01*
X299136Y149678D01*
X299078Y149721D01*
X299029Y149737D01*
X298983Y149762D01*
X298912Y149774D01*
X298844Y149796D01*
X298792Y149795D01*
X298741Y149804D01*
X298670Y149793D01*
X298598Y149792D01*
X298549Y149775D01*
X298498Y149767D01*
X298434Y149734D01*
X298366Y149710D01*
X298325Y149678D01*
X298279Y149654D01*
X298229Y149603D01*
X298173Y149559D01*
X298130Y149501D01*
X298108Y149478D01*
X298098Y149457D01*
X298073Y149423D01*
X297973Y149250D01*
X297500Y148777D01*
X296921Y148442D01*
X296274Y148269D01*
X292213Y148269D01*
X292213Y154687D01*
X298481Y154687D01*
X298481Y154318D01*
X298484Y154298D01*
X298482Y154279D01*
X298504Y154177D01*
X298520Y154075D01*
X298530Y154058D01*
X298534Y154038D01*
X298587Y153949D01*
X298636Y153858D01*
X298650Y153844D01*
X298660Y153827D01*
X298739Y153760D01*
X298814Y153689D01*
X298832Y153680D01*
X298847Y153667D01*
X298943Y153628D01*
X299037Y153585D01*
X299057Y153583D01*
X299075Y153575D01*
X299242Y153557D01*
X305817Y153557D01*
X305817Y147289D01*
X301606Y147289D01*
G37*
%LPD*%
%LPC*%
G36*
X222503Y200773D02*
X222503Y200773D01*
X222503Y207041D01*
X226714Y207041D01*
X227361Y206868D01*
X227940Y206533D01*
X228413Y206060D01*
X228576Y205778D01*
X228636Y205704D01*
X228691Y205626D01*
X228714Y205610D01*
X228732Y205588D01*
X228813Y205537D01*
X228889Y205481D01*
X228916Y205472D01*
X228940Y205457D01*
X229033Y205435D01*
X229123Y205406D01*
X229152Y205406D01*
X229179Y205400D01*
X229274Y205408D01*
X229369Y205410D01*
X229396Y205419D01*
X229424Y205422D01*
X229511Y205460D01*
X229601Y205492D01*
X229623Y205509D01*
X229649Y205520D01*
X229720Y205585D01*
X229795Y205643D01*
X229816Y205672D01*
X229831Y205686D01*
X229847Y205715D01*
X229894Y205778D01*
X230057Y206060D01*
X230530Y206533D01*
X231109Y206868D01*
X231756Y207041D01*
X235967Y207041D01*
X235967Y200773D01*
X222503Y200773D01*
G37*
%LPD*%
%LPC*%
G36*
X420623Y136003D02*
X420623Y136003D01*
X420623Y142271D01*
X424834Y142271D01*
X425481Y142098D01*
X426060Y141763D01*
X426533Y141290D01*
X426696Y141008D01*
X426756Y140934D01*
X426811Y140856D01*
X426834Y140840D01*
X426852Y140818D01*
X426933Y140767D01*
X427009Y140711D01*
X427036Y140702D01*
X427060Y140687D01*
X427153Y140665D01*
X427243Y140636D01*
X427272Y140636D01*
X427299Y140630D01*
X427394Y140638D01*
X427489Y140640D01*
X427516Y140649D01*
X427544Y140652D01*
X427631Y140690D01*
X427721Y140722D01*
X427743Y140739D01*
X427769Y140750D01*
X427840Y140815D01*
X427915Y140873D01*
X427936Y140902D01*
X427951Y140916D01*
X427967Y140945D01*
X428014Y141008D01*
X428177Y141290D01*
X428650Y141763D01*
X429229Y142098D01*
X429876Y142271D01*
X434087Y142271D01*
X434087Y136003D01*
X420623Y136003D01*
G37*
%LPD*%
%LPC*%
G36*
X405383Y136003D02*
X405383Y136003D01*
X405383Y142271D01*
X409594Y142271D01*
X410241Y142098D01*
X410820Y141763D01*
X410942Y141641D01*
X410958Y141630D01*
X410970Y141614D01*
X411057Y141558D01*
X411141Y141498D01*
X411160Y141492D01*
X411177Y141481D01*
X411277Y141456D01*
X411376Y141426D01*
X411396Y141426D01*
X411416Y141421D01*
X411519Y141429D01*
X411622Y141432D01*
X411641Y141439D01*
X411661Y141440D01*
X411756Y141481D01*
X411853Y141516D01*
X411869Y141529D01*
X411887Y141537D01*
X412018Y141641D01*
X412140Y141763D01*
X412719Y142098D01*
X413366Y142271D01*
X417577Y142271D01*
X417577Y136003D01*
X405383Y136003D01*
G37*
%LPD*%
%LPC*%
G36*
X443483Y179039D02*
X443483Y179039D01*
X443483Y185307D01*
X454407Y185307D01*
X454407Y179039D01*
X450196Y179039D01*
X449549Y179212D01*
X449326Y179342D01*
X449262Y179365D01*
X449203Y179398D01*
X449148Y179409D01*
X449096Y179429D01*
X449028Y179431D01*
X448961Y179443D01*
X448906Y179436D01*
X448850Y179438D01*
X448785Y179418D01*
X448718Y179409D01*
X448645Y179377D01*
X448614Y179368D01*
X448597Y179356D01*
X448564Y179342D01*
X448341Y179212D01*
X447694Y179039D01*
X443483Y179039D01*
G37*
%LPD*%
%LPC*%
G36*
X233093Y100583D02*
X233093Y100583D01*
X233093Y105601D01*
X243904Y105601D01*
X244551Y105428D01*
X245130Y105093D01*
X245603Y104620D01*
X245938Y104041D01*
X246111Y103394D01*
X246111Y100583D01*
X233093Y100583D01*
G37*
%LPD*%
%LPC*%
G36*
X217029Y100583D02*
X217029Y100583D01*
X217029Y103394D01*
X217202Y104041D01*
X217537Y104620D01*
X218010Y105093D01*
X218589Y105428D01*
X219236Y105601D01*
X230047Y105601D01*
X230047Y100583D01*
X217029Y100583D01*
G37*
%LPD*%
%LPC*%
G36*
X260093Y100583D02*
X260093Y100583D01*
X260093Y105601D01*
X265904Y105601D01*
X266551Y105428D01*
X267130Y105093D01*
X267603Y104620D01*
X267938Y104041D01*
X268111Y103394D01*
X268111Y100583D01*
X260093Y100583D01*
G37*
%LPD*%
%LPC*%
G36*
X469643Y100583D02*
X469643Y100583D01*
X469643Y105601D01*
X475454Y105601D01*
X476101Y105428D01*
X476680Y105093D01*
X477153Y104620D01*
X477488Y104041D01*
X477661Y103394D01*
X477661Y100583D01*
X469643Y100583D01*
G37*
%LPD*%
%LPC*%
G36*
X249029Y100583D02*
X249029Y100583D01*
X249029Y103394D01*
X249202Y104041D01*
X249537Y104620D01*
X250010Y105093D01*
X250589Y105428D01*
X251236Y105601D01*
X257047Y105601D01*
X257047Y100583D01*
X249029Y100583D01*
G37*
%LPD*%
%LPC*%
G36*
X458579Y100583D02*
X458579Y100583D01*
X458579Y103394D01*
X458752Y104041D01*
X459087Y104620D01*
X459560Y105093D01*
X460139Y105428D01*
X460786Y105601D01*
X466597Y105601D01*
X466597Y100583D01*
X458579Y100583D01*
G37*
%LPD*%
%LPC*%
G36*
X469643Y67119D02*
X469643Y67119D01*
X469643Y72137D01*
X477661Y72137D01*
X477661Y69325D01*
X477488Y68679D01*
X477153Y68100D01*
X476680Y67627D01*
X476101Y67292D01*
X475454Y67119D01*
X469643Y67119D01*
G37*
%LPD*%
%LPC*%
G36*
X437643Y67119D02*
X437643Y67119D01*
X437643Y72137D01*
X445661Y72137D01*
X445661Y69325D01*
X445488Y68679D01*
X445153Y68100D01*
X444680Y67627D01*
X444101Y67292D01*
X443454Y67119D01*
X437643Y67119D01*
G37*
%LPD*%
%LPC*%
G36*
X260093Y67119D02*
X260093Y67119D01*
X260093Y72137D01*
X268111Y72137D01*
X268111Y69325D01*
X267938Y68679D01*
X267603Y68100D01*
X267130Y67627D01*
X266551Y67292D01*
X265904Y67119D01*
X260093Y67119D01*
G37*
%LPD*%
%LPC*%
G36*
X228093Y67119D02*
X228093Y67119D01*
X228093Y72137D01*
X236111Y72137D01*
X236111Y69325D01*
X235938Y68679D01*
X235603Y68100D01*
X235130Y67627D01*
X234551Y67292D01*
X233904Y67119D01*
X228093Y67119D01*
G37*
%LPD*%
%LPC*%
G36*
X219236Y67119D02*
X219236Y67119D01*
X218589Y67292D01*
X218010Y67627D01*
X217537Y68100D01*
X217202Y68679D01*
X217029Y69326D01*
X217029Y72137D01*
X225047Y72137D01*
X225047Y67119D01*
X219236Y67119D01*
G37*
%LPD*%
%LPC*%
G36*
X460786Y67119D02*
X460786Y67119D01*
X460139Y67292D01*
X459560Y67627D01*
X459087Y68100D01*
X458752Y68679D01*
X458579Y69326D01*
X458579Y72137D01*
X466597Y72137D01*
X466597Y67119D01*
X460786Y67119D01*
G37*
%LPD*%
%LPC*%
G36*
X428786Y67119D02*
X428786Y67119D01*
X428139Y67292D01*
X427560Y67627D01*
X427087Y68100D01*
X426752Y68679D01*
X426579Y69326D01*
X426579Y72137D01*
X434597Y72137D01*
X434597Y67119D01*
X428786Y67119D01*
G37*
%LPD*%
%LPC*%
G36*
X251236Y67119D02*
X251236Y67119D01*
X250589Y67292D01*
X250010Y67627D01*
X249537Y68100D01*
X249202Y68679D01*
X249029Y69326D01*
X249029Y72137D01*
X257047Y72137D01*
X257047Y67119D01*
X251236Y67119D01*
G37*
%LPD*%
%LPC*%
G36*
X239013Y200773D02*
X239013Y200773D01*
X239013Y207041D01*
X243224Y207041D01*
X243871Y206868D01*
X244450Y206533D01*
X244923Y206060D01*
X245258Y205481D01*
X245431Y204834D01*
X245431Y200773D01*
X239013Y200773D01*
G37*
%LPD*%
%LPC*%
G36*
X437133Y136003D02*
X437133Y136003D01*
X437133Y142271D01*
X441344Y142271D01*
X441991Y142098D01*
X442570Y141763D01*
X443043Y141290D01*
X443378Y140711D01*
X443551Y140064D01*
X443551Y136003D01*
X437133Y136003D01*
G37*
%LPD*%
%LPC*%
G36*
X213039Y200773D02*
X213039Y200773D01*
X213039Y204834D01*
X213212Y205481D01*
X213547Y206060D01*
X214020Y206533D01*
X214599Y206868D01*
X215246Y207041D01*
X219457Y207041D01*
X219457Y200773D01*
X213039Y200773D01*
G37*
%LPD*%
%LPC*%
G36*
X299399Y205853D02*
X299399Y205853D01*
X299399Y209914D01*
X299572Y210561D01*
X299907Y211140D01*
X300380Y211613D01*
X300959Y211948D01*
X301606Y212121D01*
X305817Y212121D01*
X305817Y205853D01*
X299399Y205853D01*
G37*
%LPD*%
%LPC*%
G36*
X457453Y179039D02*
X457453Y179039D01*
X457453Y185307D01*
X463871Y185307D01*
X463871Y181246D01*
X463698Y180599D01*
X463363Y180020D01*
X462890Y179547D01*
X462311Y179212D01*
X461664Y179039D01*
X457453Y179039D01*
G37*
%LPD*%
%LPC*%
G36*
X308863Y147289D02*
X308863Y147289D01*
X308863Y153557D01*
X315281Y153557D01*
X315281Y149496D01*
X315108Y148849D01*
X314773Y148270D01*
X314300Y147797D01*
X313721Y147462D01*
X313074Y147289D01*
X308863Y147289D01*
G37*
%LPD*%
%LPC*%
G36*
X174853Y91853D02*
X174853Y91853D01*
X174853Y97371D01*
X177665Y97371D01*
X178311Y97198D01*
X178890Y96863D01*
X179363Y96390D01*
X179698Y95811D01*
X179871Y95164D01*
X179871Y91853D01*
X174853Y91853D01*
G37*
%LPD*%
%LPC*%
G36*
X155853Y91853D02*
X155853Y91853D01*
X155853Y97371D01*
X158665Y97371D01*
X159311Y97198D01*
X159890Y96863D01*
X160363Y96390D01*
X160698Y95811D01*
X160871Y95164D01*
X160871Y91853D01*
X155853Y91853D01*
G37*
%LPD*%
%LPC*%
G36*
X174853Y83289D02*
X174853Y83289D01*
X174853Y88807D01*
X179871Y88807D01*
X179871Y85496D01*
X179698Y84849D01*
X179363Y84270D01*
X178890Y83797D01*
X178311Y83462D01*
X177664Y83289D01*
X174853Y83289D01*
G37*
%LPD*%
%LPC*%
G36*
X155853Y83289D02*
X155853Y83289D01*
X155853Y88807D01*
X160871Y88807D01*
X160871Y85496D01*
X160698Y84849D01*
X160363Y84270D01*
X159890Y83797D01*
X159311Y83462D01*
X158664Y83289D01*
X155853Y83289D01*
G37*
%LPD*%
%LPC*%
G36*
X147789Y91853D02*
X147789Y91853D01*
X147789Y95164D01*
X147962Y95811D01*
X148297Y96390D01*
X148770Y96863D01*
X149349Y97198D01*
X149996Y97371D01*
X152807Y97371D01*
X152807Y91853D01*
X147789Y91853D01*
G37*
%LPD*%
%LPC*%
G36*
X166789Y91853D02*
X166789Y91853D01*
X166789Y95164D01*
X166962Y95811D01*
X167297Y96390D01*
X167770Y96863D01*
X168349Y97198D01*
X168996Y97371D01*
X171807Y97371D01*
X171807Y91853D01*
X166789Y91853D01*
G37*
%LPD*%
%LPC*%
G36*
X168996Y83289D02*
X168996Y83289D01*
X168349Y83462D01*
X167770Y83797D01*
X167297Y84270D01*
X166962Y84849D01*
X166789Y85496D01*
X166789Y88807D01*
X171807Y88807D01*
X171807Y83289D01*
X168996Y83289D01*
G37*
%LPD*%
%LPC*%
G36*
X149996Y83289D02*
X149996Y83289D01*
X149349Y83462D01*
X148770Y83797D01*
X148297Y84270D01*
X147962Y84849D01*
X147789Y85496D01*
X147789Y88807D01*
X152807Y88807D01*
X152807Y83289D01*
X149996Y83289D01*
G37*
%LPD*%
%LPC*%
G36*
X424179Y176499D02*
X424179Y176499D01*
X424179Y176501D01*
X424181Y176501D01*
X424181Y176499D01*
X424179Y176499D01*
G37*
%LPD*%
%LPC*%
G36*
X179069Y199349D02*
X179069Y199349D01*
X179069Y199351D01*
X179071Y199351D01*
X179071Y199349D01*
X179069Y199349D01*
G37*
%LPD*%
%LPC*%
G36*
X547369Y166179D02*
X547369Y166179D01*
X547369Y166181D01*
X547371Y166181D01*
X547371Y166179D01*
X547369Y166179D01*
G37*
%LPD*%
%LPC*%
G36*
X118109Y166179D02*
X118109Y166179D01*
X118109Y166181D01*
X118111Y166181D01*
X118111Y166179D01*
X118109Y166179D01*
G37*
%LPD*%
%LPC*%
G36*
X118109Y110679D02*
X118109Y110679D01*
X118109Y110681D01*
X118111Y110681D01*
X118111Y110679D01*
X118109Y110679D01*
G37*
%LPD*%
%LPC*%
G36*
X307339Y115529D02*
X307339Y115529D01*
X307339Y115531D01*
X307341Y115531D01*
X307341Y115529D01*
X307339Y115529D01*
G37*
%LPD*%
%LPC*%
G36*
X547369Y110679D02*
X547369Y110679D01*
X547369Y110681D01*
X547371Y110681D01*
X547371Y110679D01*
X547369Y110679D01*
G37*
%LPD*%
%LPC*%
G36*
X154329Y90329D02*
X154329Y90329D01*
X154329Y90331D01*
X154331Y90331D01*
X154331Y90329D01*
X154329Y90329D01*
G37*
%LPD*%
%LPC*%
G36*
X173329Y90329D02*
X173329Y90329D01*
X173329Y90331D01*
X173331Y90331D01*
X173331Y90329D01*
X173329Y90329D01*
G37*
%LPD*%
D10*
X226570Y73660D03*
X258570Y86360D03*
X258570Y99060D03*
X226570Y86360D03*
D11*
X231570Y99060D03*
D10*
X258570Y73660D03*
X436120Y73660D03*
X468120Y86360D03*
X468120Y99060D03*
X436120Y86360D03*
D11*
X441120Y99060D03*
D10*
X468120Y73660D03*
D12*
X164070Y170180D03*
D13*
X179070Y172680D03*
D12*
X194070Y170180D03*
D14*
X179070Y199350D03*
D12*
X292340Y86360D03*
D13*
X307340Y88860D03*
D12*
X322340Y86360D03*
D14*
X307340Y115530D03*
D15*
X390398Y158496D03*
X390398Y181610D03*
X390398Y204724D03*
D16*
X328420Y181610D03*
D17*
X163830Y125870D03*
X163830Y143370D03*
X500380Y85230D03*
X500380Y102730D03*
X441960Y204330D03*
X441960Y186830D03*
X455930Y204330D03*
X455930Y186830D03*
X307340Y172580D03*
X307340Y155080D03*
X307340Y186830D03*
X307340Y204330D03*
D18*
X273190Y156210D03*
X290690Y156210D03*
D17*
X237490Y181750D03*
X237490Y199250D03*
X220980Y181750D03*
X220980Y199250D03*
X403860Y116980D03*
X403860Y134480D03*
X435610Y116980D03*
X435610Y134480D03*
X419100Y116980D03*
X419100Y134480D03*
D19*
X424180Y204500D03*
X424180Y176500D03*
D20*
X252760Y156210D03*
X224760Y156210D03*
D21*
X382270Y82520D03*
X382270Y110520D03*
D22*
X500380Y170130D03*
X500380Y132130D03*
D23*
X118110Y166180D03*
D24*
X118110Y138430D03*
D23*
X118110Y110680D03*
X547370Y110680D03*
D24*
X547370Y138430D03*
D23*
X547370Y166180D03*
D25*
X256290Y182880D03*
X284730Y182880D03*
X383790Y133350D03*
X355350Y133350D03*
D26*
X515530Y204470D03*
X472530Y204470D03*
D27*
X154330Y90330D03*
X173330Y90330D03*
X163830Y111330D03*
D28*
X164070Y143610D02*
X164070Y170180D01*
X164070Y143610D02*
X164068Y143581D01*
X164063Y143553D01*
X164054Y143525D01*
X164043Y143498D01*
X164028Y143474D01*
X164010Y143451D01*
X163989Y143430D01*
X163966Y143412D01*
X163942Y143397D01*
X163915Y143386D01*
X163887Y143377D01*
X163859Y143372D01*
X163830Y143370D01*
D29*
X106680Y138430D03*
D28*
X163830Y125870D02*
X163830Y111330D01*
X140970Y138430D02*
X118110Y138430D01*
X153530Y125870D02*
X163830Y125870D01*
X153530Y125870D02*
X140970Y138430D01*
D30*
X241300Y101600D02*
X241300Y88900D01*
X452120Y86360D02*
X452120Y99060D01*
D31*
X222250Y129540D03*
X236220Y129540D03*
X236220Y115570D03*
X222250Y115570D03*
X278130Y100330D03*
X403860Y100330D03*
X275590Y73660D03*
X341630Y72390D03*
X351790Y72390D03*
X361950Y72390D03*
X374650Y63500D03*
X419100Y101600D03*
X485140Y73660D03*
X483870Y101600D03*
X109220Y198120D03*
X124460Y198120D03*
X138430Y198120D03*
X138430Y184150D03*
X124460Y184150D03*
X109220Y184150D03*
X561340Y184150D03*
X546100Y184150D03*
X532130Y184150D03*
X532130Y198120D03*
X546100Y198120D03*
X561340Y198120D03*
X530860Y93980D03*
X546100Y93980D03*
X560070Y93980D03*
X560070Y80010D03*
X546100Y80010D03*
X530860Y80010D03*
X309880Y218440D03*
X323850Y218440D03*
X367030Y208280D03*
X353060Y208280D03*
X367030Y218440D03*
X353060Y218440D03*
X337820Y218440D03*
X359410Y100330D03*
X345440Y100330D03*
X345440Y114300D03*
X359410Y114300D03*
X251460Y129540D03*
X266700Y129540D03*
X280670Y129540D03*
X280670Y115570D03*
X266700Y115570D03*
X251460Y115570D03*
X497840Y68580D03*
X509270Y68580D03*
X389890Y63500D03*
X403860Y72390D03*
X419100Y72390D03*
X516890Y80010D03*
X516890Y95250D03*
X516890Y109220D03*
X283210Y67310D03*
X294640Y67310D03*
X331470Y67310D03*
X318770Y67310D03*
X307340Y67310D03*
X455930Y115570D03*
X455930Y129540D03*
X469900Y129540D03*
X469900Y115570D03*
X455930Y144780D03*
X455930Y160020D03*
X455930Y171450D03*
X469900Y171450D03*
X469900Y160020D03*
X469900Y144780D03*
X367030Y196850D03*
X353060Y196850D03*
X438150Y160020D03*
X424180Y160020D03*
X438150Y148590D03*
X424180Y148590D03*
X102870Y91440D03*
X118110Y91440D03*
X132080Y91440D03*
X132080Y77470D03*
X118110Y77470D03*
X102870Y77470D03*
D32*
X106680Y166370D03*
X105410Y110490D03*
X556260Y166370D03*
X557530Y110490D03*
D31*
X173990Y205740D03*
X173990Y191770D03*
X182880Y205740D03*
X182880Y191770D03*
X302260Y123190D03*
X302260Y109220D03*
X311150Y123190D03*
X311150Y109220D03*
D33*
X307340Y115530D02*
X307340Y88860D01*
D31*
X481330Y113030D03*
X146050Y74930D03*
D34*
X181610Y147320D03*
X181610Y134620D03*
X181610Y121920D03*
X181610Y110490D03*
X184150Y97790D03*
X189230Y87630D03*
X198120Y80010D03*
X208280Y74930D03*
X205740Y140970D03*
X207010Y130810D03*
X207010Y119380D03*
X207010Y109220D03*
X210820Y101600D03*
D31*
X158750Y74930D03*
X184150Y74930D03*
X195580Y69850D03*
X171450Y74930D03*
X208280Y63500D03*
D35*
X258570Y86360D02*
X292340Y86360D01*
X468120Y86360D02*
X500460Y86360D01*
X500460Y85230D01*
D36*
X441960Y204330D02*
X442100Y204470D01*
X472390Y204330D02*
X472530Y204470D01*
X472390Y204330D02*
X455930Y204330D01*
X441960Y204330D01*
X424350Y204330D01*
X424180Y204500D01*
X390622Y204500D01*
X390398Y204724D01*
X390398Y181610D02*
X355600Y181610D01*
X347980Y181610D01*
X328420Y181610D01*
D37*
X309880Y181610D01*
X311150Y182880D02*
X284730Y182880D01*
X347730Y181360D02*
X347980Y181610D01*
X307340Y179070D02*
X307340Y172580D01*
X307340Y179070D02*
X309880Y181610D01*
X311150Y182880D01*
X307340Y179070D02*
X307340Y186830D01*
X307340Y172580D01*
X355350Y181360D02*
X355350Y133350D01*
X355350Y181360D02*
X355600Y181610D01*
D36*
X500380Y170130D02*
X501650Y171400D01*
X502830Y191770D02*
X515530Y204470D01*
X502830Y191770D02*
X502830Y185280D01*
X500380Y182830D01*
X500380Y170130D01*
D35*
X500380Y132130D02*
X500380Y102730D01*
X506680Y138430D02*
X547370Y138430D01*
X506680Y138430D02*
X500380Y132130D01*
D29*
X556260Y138430D03*
D37*
X237490Y181750D02*
X220980Y181750D01*
D36*
X251460Y157510D02*
X252760Y156210D01*
D37*
X256290Y159740D02*
X256290Y182880D01*
X256290Y159740D02*
X252760Y156210D01*
X255160Y181750D02*
X256290Y182880D01*
X255160Y181750D02*
X237490Y181750D01*
X252760Y156210D02*
X273190Y156210D01*
D28*
X194070Y152400D02*
X194070Y170180D01*
X194070Y152400D02*
X194070Y111760D01*
X194077Y111146D01*
X194100Y110533D01*
X194137Y109920D01*
X194189Y109309D01*
X194255Y108698D01*
X194337Y108090D01*
X194433Y107484D01*
X194543Y106880D01*
X194668Y106279D01*
X194808Y105681D01*
X194962Y105087D01*
X195131Y104497D01*
X195313Y103911D01*
X195510Y103330D01*
X195721Y102753D01*
X195945Y102182D01*
X196183Y101616D01*
X196435Y101056D01*
X196701Y100503D01*
X196979Y99956D01*
X197271Y99416D01*
X197576Y98883D01*
X197894Y98358D01*
X198224Y97840D01*
X198566Y97331D01*
X198921Y96830D01*
X199288Y96338D01*
X199666Y95855D01*
X200056Y95381D01*
X200458Y94917D01*
X200870Y94462D01*
X201294Y94018D01*
X201728Y93584D01*
X202172Y93160D01*
X202627Y92748D01*
X203091Y92346D01*
X203565Y91956D01*
X204048Y91578D01*
X204540Y91211D01*
X205041Y90856D01*
X205550Y90514D01*
X206068Y90184D01*
X206593Y89866D01*
X207126Y89561D01*
X207666Y89269D01*
X208213Y88991D01*
X208766Y88725D01*
X209326Y88473D01*
X209892Y88235D01*
X210463Y88011D01*
X211040Y87800D01*
X211621Y87603D01*
X212207Y87421D01*
X212797Y87252D01*
X213391Y87098D01*
X213989Y86958D01*
X214590Y86833D01*
X215194Y86723D01*
X215800Y86627D01*
X216408Y86545D01*
X217019Y86479D01*
X217630Y86427D01*
X218243Y86390D01*
X218856Y86367D01*
X219470Y86360D01*
X226570Y86360D01*
X220950Y152400D02*
X221072Y152402D01*
X221194Y152408D01*
X221316Y152418D01*
X221437Y152431D01*
X221558Y152449D01*
X221678Y152470D01*
X221798Y152496D01*
X221916Y152525D01*
X222034Y152557D01*
X222151Y152594D01*
X222266Y152634D01*
X222380Y152678D01*
X222492Y152726D01*
X222603Y152777D01*
X222712Y152832D01*
X222820Y152890D01*
X222925Y152952D01*
X223028Y153017D01*
X223130Y153085D01*
X223229Y153157D01*
X223325Y153231D01*
X223420Y153309D01*
X223511Y153390D01*
X223601Y153473D01*
X223687Y153559D01*
X223770Y153649D01*
X223851Y153740D01*
X223929Y153835D01*
X224003Y153931D01*
X224075Y154030D01*
X224143Y154132D01*
X224208Y154235D01*
X224270Y154340D01*
X224328Y154448D01*
X224383Y154557D01*
X224434Y154668D01*
X224482Y154780D01*
X224526Y154894D01*
X224566Y155009D01*
X224603Y155126D01*
X224635Y155244D01*
X224664Y155362D01*
X224690Y155482D01*
X224711Y155602D01*
X224729Y155723D01*
X224742Y155844D01*
X224752Y155966D01*
X224758Y156088D01*
X224760Y156210D01*
X220950Y152400D02*
X194070Y152400D01*
D37*
X403860Y116980D02*
X419100Y116980D01*
X435610Y116980D01*
D36*
X403860Y116980D02*
X388730Y116980D01*
X382270Y110520D01*
X383790Y112040D02*
X383790Y133350D01*
X383790Y112040D02*
X382270Y110520D01*
D35*
X382240Y82550D02*
X382270Y82520D01*
X382300Y82550D01*
X378430Y86360D02*
X322340Y86360D01*
D28*
X378430Y86360D02*
X382240Y82550D01*
X382270Y82520D02*
X386110Y86360D01*
X436120Y86360D01*
M02*
