M48
;GenerationSoftware,Autodesk,EAGLE,9.5.1*%
;CreationDate,2022-10-22T12:34:10Z*%
FMAT,2
ICI,OFF
METRIC,TZ,000.000
T4C0.229
T3C0.350
T2C0.550
T1C0.635
%
G90
M71
T1
X10668Y16637
X10541Y11049
X55626Y16637
X55753Y11049
T2
X10668Y13843
X55626Y13843
T3
X40386Y10033
X27559Y7366
X34163Y7239
X35179Y7239
X36195Y7239
X37465Y6350
X41910Y10160
X48514Y7366
X48387Y10160
X10922Y19812
X12446Y19812
X13843Y19812
X13843Y18415
X12446Y18415
X10922Y18415
X56134Y18415
X54610Y18415
X53213Y18415
X53213Y19812
X54610Y19812
X56134Y19812
X53086Y9398
X54610Y9398
X56007Y9398
X56007Y8001
X54610Y8001
X53086Y8001
X30988Y21844
X32385Y21844
X36703Y20828
X35306Y20828
X36703Y21844
X35306Y21844
X33782Y21844
X35941Y10033
X34544Y10033
X34544Y11430
X35941Y11430
X25146Y12954
X26670Y12954
X28067Y12954
X28067Y11557
X26670Y11557
X25146Y11557
X49784Y6858
X50927Y6858
X38989Y6350
X40386Y7239
X41910Y7239
X51689Y8001
X51689Y9525
X51689Y10922
X28321Y6731
X29464Y6731
X33147Y6731
X31877Y6731
X30734Y6731
X45593Y11557
X45593Y12954
X46990Y12954
X46990Y11557
X45593Y14478
X45593Y16002
X45593Y17145
X46990Y17145
X46990Y16002
X46990Y14478
X36703Y19685
X35306Y19685
X43815Y16002
X42418Y16002
X43815Y14859
X42418Y14859
X10287Y9144
X11811Y9144
X13208Y9144
X13208Y7747
X11811Y7747
X10287Y7747
X22225Y12954
X23622Y12954
X23622Y11557
X22225Y11557
X27813Y10033
X17399Y19177
X18288Y20574
X18288Y19177
X30226Y12319
X30226Y10922
X31115Y12319
X31115Y10922
X48133Y11303
X14605Y7493
X17399Y20574
X15875Y7493
X18415Y7493
X19558Y6985
X17145Y7493
X20828Y6350
T4
X19812Y8001
X20828Y7493
X20574Y14097
X20701Y13081
X20701Y11938
X20701Y10922
X21082Y10160
X18161Y13462
X18161Y12192
X18161Y11049
X18161Y14732
X18923Y8763
X18415Y9779
M30